<svg xmlns="http://www.w3.org/2000/svg" id="Layer_1" x="0" y="0" version="1.1" viewBox="0 0 157.06 157.39" xml:space="preserve"><style>.st15{fill:#bfcdde}.st33{fill:#7e90ba}.st59{fill:#a2b2c7}.st61{fill:#a9b8d1}.st64{fill:#9eadcc}</style><path fill="#a0b0c3" d="M89.65 129.02c.39 6.23-1.58 11.54-6.13 15.85h-4.99c-3.03-3.18-7.02-5.75-7.07-10.87.79-5.17 5.32-8.86 9.74-7.56 2.71.79 5.21 2.25 8.21 1.37.24-.08.48.71.24 1.21z"/><path fill="#6f82b8" d="M7.59 75.95c1.66-2.51 4.01-3.88 6.98-4.23 1.58 1.99 3.05 4.16 6.09 3.82 2.38.07 4.75-.04 7.12-.01 6.17-.24 12.42.76 18.47-1.25 2.98.15 3.49 1.48 1.81 3.84-1.67 1.5-3.67.5-5.51.75-8.54 1.81-16.97 4.27-25.92 3.24-3.16-.36-6.21-.66-9.05-2.16.01-1.34.01-2.67.01-4z"/><path fill="#8a9ac3" d="M141.56 60.87c2.63.4 3.83 2.85 5.88 4.08v4.99c-2.2 1.6-3.97 3.91-6.99 4.12-1.06-1.29-1.49-2.91-2.35-4.32-2.48-4.1-1.4-6.71 3.46-8.87z"/><path fill="#7b8db7" d="M95.5 6.02c2.9 1.5 3.58 3.91 2.84 6.91-3.52-1.94-6.85-2.61-10.05.77-.85.89-2.57 1.8-2.87-.8 1.62-3.05 4.39-4.93 7.08-6.88h3z"/><path fill="#a6b7d2" d="M42.81 120.03c.92-1.7 1.84-3.41 2.77-5.11 7.15-1.08 10.01-5.97 7.89-13.05-.4-1.34-.64-2.08-2.11-2.01-5.72.3-3.71-1.94-1.39-4.28 2.39.11 4.29-1 6.05-2.44 1.67-1.42 3.44-2.48 5.72-1.38.44.17.86.38 1.27.62 2.93 1.89 1.77 3.86.13 5.84-.55.59-1.11 1.19-1.8 1.84.65-.41 1.01-.94 1.53-1.3.35-.29.75-.5 1.18-.65 2.91-.26 5.91.52 8.72-.83.5.02.97.13 1.43.33 2.34 1.39 4.1 3.04 2.86 6.1-.91 1.2-2.25 1.1-3.56 1.24-5.95.61-10.69 6.93-9.77 12.93-1.58 4.69-5.16 7.48-9.27 9.77-2.56-4.57-7.04-6.2-11.65-7.62z"/><path fill="#c0cfde" d="M63.69 117.91c-4.28-1.11-.26-4.44-1.69-6.32 4.6-2.93 7.22-9.6 14.41-7.63.84.36 1.5 1.15 2.53 1.04.78-.08 1.55-.18 2.33-.26.79-.12 1.57-.3 2.3-.61 1.34-.63.93-2.18 1.65-3.14 2.25-1.02 4.53-1.06 6.83-.17 3.28 4.07 5.55 8.61 6.32 13.83-.06.48-.19.94-.4 1.38-1.56 2.06-3.34 1.54-5.15.4-2.35-1.47-4.86-1.76-6.57.57-1.72 2.35-4.11-.78-5.62 1.18-3.73 1.05-6.58 4.67-10.98 3.71.31-4.9 1.55-9.76.6-14.9-2.15 3.73-2.69 8.36-6.56 10.92z"/><path fill="#bfcedf" d="M50.71 96.01c-1.21.51-1.54 1.62-2.07 3.4 2.26-1.34 5.48-1.93 5.71.02.29 2.4 3.53 4.56 1.01 7.28-.99 1.07-.49 2.6-.97 3.76-2.03 4.91-3.94 7.03-8.81 4.46.79-2.62 3.41-4.39 3.65-7.43-2.08.44-2.26 2.54-3.64 3.42-5.2 1.53-11.18-1.45-12-5.98 4.17-4.67 9.12-8.29 14.74-11.02 1.29-.74 2.52-1.03 3.52.46.11.88-.04 1.59-1.14 1.63z"/><path fill="#adbcd5" d="M37.51 96.86c-1.01.63-2.03 1.26-3.04 1.9-1.17-.5-2.83-.4-3.24-1.92-.75-2.8-3.02-3.06-5.28-3.67-2.14-.58-4.87-1.07-3.46-4.52 4.97-3.44 10.62-5.42 16.22-7.51 1.69.93 5.84.12 2.98 4.24-.82.62-1.92.4-2.86.96 1.24-.48 2.49-.28 3.66-.63 2.41-.36 4.67-2.11 7.24-.96 1.81.81 3.8 1.59 3.5 4.21-.14.47-.42.85-.82 1.14-2.25-.18-3.75 1.85-5.88 2.01-2.28-2.69-5.02-1.58-7.57-.72-3.01 1-.41 3.77-1.45 5.47z"/><path fill="#b2c1cd" d="M69.65 121.89c3.79-.88 6.51-4.66 10.86-3.99 1.09 2.2 2.77 3 5.22 2.45 1.75-.4 3.65-.75 4.59 1.52.05 2.41.86 4.89-.69 7.15-3.32-2.25-1.2 2.67-3.21 2.16-4.2-5.08-7.39-5.16-12.1-.14-.94 1.01-2.96.97-2.89 2.96-1.49-3.9-1.23-8.06-1.78-12.11z"/><path fill="#a0afd0" d="M22.49 88.64c.06 2.93 2.22 3.13 4.38 3.56 2.42.48 5.83-.14 5.22 4.32-.09.63 1.54 1.49 2.38 2.24-4.23 1.11-8.2 3.71-12.87 2.19-3.39-2.91-4.02-6.34-2.04-11.18.66-1.22 1.92-.84 2.93-1.13z"/><path fill="#9faecf" d="M26.67 112.95c1-1.32 2.01-2.64 3.01-3.95 5.49.4 8.54 4.45 11.94 7.97-1.52 3.6-4.4 5.28-8.12 5.8-5.04-1.35-5.03-6.21-6.83-9.82z"/><path fill="#8394bc" d="M41.48 84.77c1.46-3.02-2.41-2-2.77-3.64 1.19-.92 3.2-.44 3.85-2.28 1.44-1.53 3.31-.73 5-.93 1.78-1.19 3.58-1.23 4.71.68 1.66 2.82 4.19 5.15 4.85 8.54.05.75-.14 1.42-.74 1.93-1.29.32-2.59.92-3.84-.14-.78-3.38-3.15-3.69-5.98-3.09-1.39.29-2.77.61-4.16.91-.33-.65-.75-1.26-.92-1.98z"/><path fill="#b2c2da" d="M41.62 116.97c-4.67-1.63-7.56-5.91-11.94-7.97.79-1.84 2.22-3.08 3.91-4.06 2.94 4.12 7.21 5.57 12 5.98-.99 2.24-2.29 4.26-3.97 6.05z"/><path fill="#8b9cc5" d="M42.81 120.03c2.01 2.6 4.07-1.16 6.65.23 3.31 1.79 2.86 5.3 4.97 7.41-.97.71-1.94 1.43-2.91 2.14-2.31-2.25-4.44-4.7-8.25-2.43-1 .6-2.51-.42-3.47-1.45 1-1.96 2-3.93 3.01-5.9z"/><path fill="#7284b8" d="M39.8 125.94c1.96-.4 3.66.87 6.13-.79 2.58-1.73 4.49 2.02 5.59 4.66-1.14.66-2.24 1.42-3.43 1.97-5.76 2.7-8.75.57-8.29-5.84z"/><path d="M37.51 96.86c-.53-2.03-3.51-4.37-.87-5.99 2.58-1.58 6-2.49 9.29-1.61 1.58.42 1 1.76.6 2.84-3 1.59-6.01 3.17-9.02 4.76z" class="st15"/><path fill="#7284b7" d="M19.56 89.76c.27 3.8-.45 7.79 2.04 11.18-5.89-.2-8.73-2.29-8.03-6.09.59-3.21 3.43-4.04 5.99-5.09z"/><path fill="#90a1c6" d="M26.67 112.95c4.07 2.02 2.57 7.93 6.83 9.82-3.16.34-6.4.76-8.32-2.61-1.55-2.75-.27-5.07 1.49-7.21z"/><path fill="#97a8c6" d="M52.54 88.94c1.02.34 2.06-1.17 3.07.03.9.46 2.26.38 2.24 1.92-.33 1.13-1.2 1.83-2.01 2.59-1.31.74-2.39 2.16-4.2 1.49-.81-1.25-2.09-1.04-3.3-1.06 1.36-1.27 2.72-2.55 4.08-3.82.03-.38.08-.77.12-1.15z"/><path fill="#c2d1e0" d="M54.56 40.9c1.54-4.22-3.51-5.62-3.92-9.1-.16-1.36-1.25-2.61-1.91-3.91 1.11-2.65 9.04-6.36 11.4-5.42 2.14.85 1.46 3.13 2.45 4.54.45.67.89 1.33 1.47 2.19 1.35-2.67-.64-5.87 1.38-8.3 1.82 3.28 5.01 2.5 7.84 2.51 1.95.01 4-.79 5.19 1.56.17 1.18.59 2.11 2.04 1.98.99 3.03-.41 5.74-1.3 8.45-.54 1.65-1.88 2.66-3.84 1.75-.91-1.99-.44-3.89-.06-5.32-1.91 4.54.68 9.67 0 14.72-1.48 2.31-3.49 3.75-6.33 3.81-2.29-3.1-5.34-5.65-6.69-9.43-.23-.61-.82.1-.22-.19.08-.04.1.13.25.42.37.73.96 1.53.59 2.28-1.11 2.24-3.04 2.73-5.35 2.13-1.7-1.13-3.51-2.16-2.99-4.67z"/><path fill="#c0cfd5" d="M54.56 40.9c1 1.36 1.99 2.73 2.99 4.09.85.55 1.88 1.25 1.29 2.32-.94 1.7-2.58.85-3.98.66-.91-.32-1.67-.85-2.33-1.55.89 1.35 2.76 1.72 3.41 3.33.16.46.2.92.15 1.4-.22.73-.7 1.21-1.43 1.44-.47.06-.95.07-1.36-.23-.04.66.6.41.88.63 3.02 2.41 6.16 4.71 7.74 8.43-.89 1.38.64 3.93-2.13 4.43-1.98.19-3.75-.62-5.61-1.06-4.33-1.26-8.91-1.42-13.12-3.13-1.44-1.69-1.52-3.74-1.5-5.81 2.54-.16 4.5 1.87 8.11 2.16-6-5.36-11.92-9.32-16.25-14.94.47-1.12 1.41-1.84 2.32-2.52 3.77-2.84 7.29-5.73 5.12-11.28-.15-.39.31-.9.69-1.24 5.13 4.14 10.58 7.91 15.01 12.87z"/><path fill="#c3d2d7" d="M75.74 36.98c2.42-.25 2.56-1.97 2.87-3.91.33-2.09 1.23-4.09 1.89-6.13.09-2.49.72-4.83 1.95-7 5.46-.65 10.21-2.97 14.61-6.14.46-.14.9-.09 1.32.13-.53 6.94-2 13.66-4.73 20.08-3.32 2-6.2 4.53-9.09 7.1-5.63 5.01-6.29 4.75-9.59-2.22-.09-.77.05-1.46.77-1.91z"/><path fill="#c3d2e1" d="M39.55 55.85c1.5 1.41 2.8 2.86.99 4.93.82.5-2.5.45-.17 1.05 2.31.6 5.21-.15 6.2 3.08-4.77 2.97-9.98 1.19-14.99 1.29-1.95.04-3.93-.41-5.91-.32-2.84.67-4.11-1.88-6.09-2.96 2.58-4.02 4.29-8.61 7.96-11.9 4 1.61 8.01 3.22 12.01 4.83z"/><path fill="#7b8dbb" d="M25.67 65.89c5.62-2.29 11.49.04 17.18-.96 1.23-.22 2.65.37 3.61-.91 2.3-2.11 4.58.43 6.87.04 2.45.8 5.05 1.17 7.25 2.64-1.04 3.2-3.94 4.73-6.16 6.89-2.58.61-4.96-.28-7.37-.96-1-1.08-2.32-1.78-3.37-2.81-.52-.5.28-1.24.18-1.19-4.06 1.99-8.14.15-12.19.09-.46-.15-.85-.4-1.17-.77-1.18-1.68-3.55-.59-4.83-2.06z"/><path fill="#adbdd6" d="M39.55 28.03c3.72 7.34-1.29 10.93-6.28 14.47-.5.35-1.23.38-1.85.56-1.68-1.42-2.66-3.33-3.66-5.22.25-4.92 4.91-6.89 7.04-10.56.4-.6.99-.94 1.66-1.16 1.03.65 2.06 1.28 3.09 1.91z"/><path fill="#b3c1d9" d="M62.58 27c-1.58-3.89-3.73-4.86-7.34-1.98-1.81 1.45-5.4-.6-6.52 2.86-1.6-2.44-1.45-5.3-1.96-8 3.11-3.57 7.47-4.11 11.75-4.84 3.38 3.3 3.52 7.7 4.07 11.96z"/><path d="M30.5 67.95c.33.01.66.03.99.08.68 1.63 3.75 1.61 2.96 4.27-.89.97-3.21.01-3.12 2.32-.3 2.4-2.58 1.4-3.79 2.24-2.63 0-5.26-.01-7.89-.01-1.78-1.63-3.97-3.04-3.17-6.03 4.27-2.91 9.32-2.04 14.02-2.87z" class="st15"/><path fill="#a9b7d3" d="M78.46 24.95c-1.7-1.16-3.34-.44-5.14-.14-3.4.56-6.73.31-7.89-3.93.2-1.66-.58-3.55 1.11-4.87.68-.95 1.49-2.06 2.71-1.16 2.52 1.88 5.53 1.48 8.31 2.11 1.89 2.48.65 5.32.9 7.99z"/><path fill="#b7c4db" d="M27.54 51.02c-2.14 4.31-3.44 9.19-7.96 11.9-1.03-.62-2.06-1.25-3.1-1.87.72-2.05.59-4.24 1.13-6.35.82-3.13 2.39-4.93 5.81-4.56 1.38.3 2.75.59 4.12.88z"/><path fill="#8d9dc4" d="M77.56 16.96c-3.13 1.88-5.97.68-8.47-1.16-1.22-.9-1.72.16-2.55.21.97-3.03 1.94-6.2 6.03-5.89 4.17.32 4.28 3.85 4.99 6.84z"/><path fill="#7c8fbb" d="M15.52 60.22c-.38-.31-.85-.55-1.12-.94-1.74-2.47-4.39-4.78-2.76-8.24 1.72-3.65 5.06-1.91 7.84-1.92-.98 3.82-1.8 7.7-3.96 11.1z"/><path fill="#92a1c8" d="M35.59 27.03c.46 3.6-3.29 4.47-4.81 6.79-.79 1.21-1.78 2.88-3.03 4.04-1.21-1.44-1.55-3.22-2-4.97 1.31-6.01 5.56-8.55 9.84-5.86z"/><path fill="#90a0c1" d="M98.37 13.93c-.29.06-.58.11-.87.14-2.21.5-4.36.8-6.29 2.43-2.2 1.84-4.98 2.47-7.68.5.63-1.36 1.26-2.73 1.88-4.09 1.87 2.13 2.5-.49 3.36-1.09 5.04-3.49 5.76-3.48 9.56 1.12.02.32.03.65.04.99z"/><path fill="#b3c2ce" d="M83.53 16.99c3.23.06 6.32.14 8.65-2.97 1.42-1.89 3.54-.98 5.32.04-4.13 4.23-8.74 7.24-15.06 5.87.37-.98.73-1.96 1.09-2.94z"/><path d="M58.52 15.03c-3.57 2.47-7.92 3.02-11.75 4.84 1.79-6.56 5.4-8.05 11.75-4.84z" class="st33"/><path fill="#7d8fba" d="M35.59 27.03c-5.12-1.14-7.82 1.78-9.83 5.86-.06-2.87-1.35-6.07 2.01-8.07 3.24-1.93 6.03-.68 8.69 1.32-.29.3-.58.59-.87.89z"/><path fill="#9aaacb" d="M15.52 60.22c.56-3.97 1.59-7.77 3.96-11.1 1.53-.47 2.61.75 3.94 1.03-3.81.76-4.79 3.91-5.04 6.96-.15 1.81-.18 3.13-1.9 3.95l-.96-.84z"/><path fill="#98aaca" d="M16.48 70.82c1.06 2.01 2.12 4.02 3.17 6.03-3.14-.28-5.32-1.51-5.08-5.13.64-.3 1.27-.6 1.91-.9z"/><path fill="#c5d2e1" d="M123.45 58.05c-.38 1.1-2.12.92-2.2 2.46 2.51 1.42 4.81-1.06 7.26-.5.31.35.58.72.84 1.11 1.02 3.12 3.62 5.39 4.22 8.86.46 2.65.36 4.85-1 7.06-3.65 2.56-7.85 1.66-11.88 1.94-3.04.21-6.22-.99-9.11.84-1.24 1.35-2.66 1.23-4.17.55-3.68-4.79-3.21-9.11 1.26-11.54 3.56-1.02 7.11-2.1 11.97-2.49-4.57.2-7.81 1.42-11.14 2.09-.5.06-.97-.04-1.4-.3-2.34-3.18.4-6.08.51-9.12.73-1.95 2.51-2.82 4.04-3.94 5.12-4.17 6.93-3.78 10.81 2.3-.01.23-.01.46-.01.68z"/><path fill="#a8b8c7" d="M97.51 115.9l.03-1.05c.42-.5.62-1.29 1.51-1.2 2.81 5.2 8.03 3.47 12.36 4.31.28.69.57 1.37.85 2.06-.38 2.28-.19 4.59-.34 6.88-.55 8.53-6.13 11.44-13.53 7.01-2.32-1.34-2.59-4-3.86-6.01 2.39-3.66 3.7-7.58 2.98-12z"/><path fill="#a3b2d0" d="M133.37 99.65c.53 3.27 3.59 4.94 4.89 7.72 1.74 3.69 1.99 6.95-2.61 8.77-3.39-.73-5.68-2.69-6.7-6.05.56-8.04-1.23-10.49-9.03-11.71-3.17-.49-5.63-3.97-9.3-2.11-1.8.29-3.17-.69-4.58-1.55-1.63-1.31-4.02-1.69-4.85-3.97.36-1.8 1.72-2.21 3.26-2.36 7.87 1.88 15.86 3.3 23.63 5.59.86.36 1.67.81 2.46 1.31 1.35 1.18 3.15 2.09 2.83 4.36z"/><path fill="#bcccd9" d="M111.41 117.96c-4 2.83-10.99.57-12.76-4.13-1.63-2.6-2.34-5.61-3.8-8.28.93-3.39 4.56-2.9 6.65-4.63 4.17 5.17 8.15 10.46 9.91 17.04z"/><path fill="#8a9bc5" d="M133.37 99.65c-.98-1.24-1.96-2.48-2.93-3.71.99-3.66 2.37-6.66 7.1-4.49 1.28.58 2.44-.9 3.78-.44 3.35 2.28 5.76 5.22 4.65 9.48-1.21 4.64-5.64 5.33-9.03 1.73-.99-1.07-1.98-2.28-3.57-2.57z"/><path fill="#94a6ca" d="M141.32 90.99c-1.21.71-1.44 3.5-3.68 1.96-3.42-2.35-5.09-1.13-5.88 2.52-.05.24-.87.31-1.33.46-.67-.31-1.34-.62-2.02-.93-2.18-4.52-4.66-8.75-10.14-9.88-1.43-.09-2.76-.47-3.98-1.24-1.92-1.79-4.8-1.3-6.8-2.9-.22-.45-.17-.86.19-1.22l3.89.06c10.42 2.4 21 4.36 29.75 11.17z"/><path fill="#bbc9cd" d="M97.51 115.9c2.35 4.81 1.36 8.82-2.97 11.99-.69-1.47-1.48-2.91-2.04-4.43-.56-1.51-.88-3.11-1.33-4.74-1.12.91-.52 2.15-.83 3.15-2.06-1.78-4.11.02-6.16 0-2.57-.03-5.61.28-3.66-3.96l.48-2.31c2.87 2.88 4.26.02 6.39-1.3 1.68-1.04 4.2-.91 5.86.91 1.29 1.42 2.62 1.78 4.26.69z"/><path fill="#9badc9" d="M98.4 133.91c1.61.32 3.22.85 4.84.93 4.62.22 7.18-2.18 7.21-6.75.02-2.85.16-5.61 1.81-8.07 1.08 3.64 2.49 7.21 3.15 10.92.67 3.76-.16 7.46-3.96 9.39-3.66 1.86-6.75.11-9.44-2.35-1.33-1.22-2.42-2.7-3.61-4.07z"/><path fill="#6f81b6" d="M128.45 115.18c-10.58-3.42-18.91-10.43-27.46-17.1 1.64-1.7 3.45-.5 5.2-.3 3.58 1.73 7.44 2.87 10.88 4.93 3.8 1.74 7.9 3.06 10.21 6.98.74 1.75 2.7 3.25 1.17 5.49z"/><path fill="#8a9abd" d="M106.52 98.87c-1.84-.26-3.68-.53-5.53-.79-.49-.05-.97-.09-1.46-.14-1.28 2.77-3.76.94-5.83 1.43.76 1.86 1.39 3.67 1.8 5.54.83 3.05 3.23 5.55 3.14 8.92l-1.11 1.02c-1.17-5-3.75-9.39-6.05-13.9-1.24-.52-1.82-1.55-2.16-2.77-.78-2.84-.8-5.2 3.17-5.12 1.2.02 2.04-.82 2.99-1.41 4.43 1.27 9.03 2.27 11.04 7.22z"/><path fill="#99a9cc" d="M128.45 60.98c-.02-.32 0-.64.06-.96 4.44-.99 8.88-2.12 13.06.86-3.14 2.98-5.76 5.99-1.23 9.97.96.85.6 2.12.13 3.22-.41.79-1.16.91-1.93.95-1.04.48-1.73-.2-1.83-.97-.76-5.65-4.7-9.23-8.26-13.07z"/><path fill="#b1bed8" d="M128.45 60.98c4.98 2.27 8.18 5.88 8.8 11.51.1.94.28 1.98 1.28 2.53-1.75 1.36-3.84 1.75-5.96 2.03 1.62-6.12-2.33-10.82-4.12-16.07z"/><path fill="#a3b1cf" d="M95.5 104.91c-1.9-1.88-2.6-4.41-3.82-6.88 2.71-1.24 5.34 1.75 7.84-.09l1.96 2.98c-1.09 2.68-3.51 3.36-5.98 3.99z"/><path fill="#8e9ec4" d="M128.45 115.18c.32-2.12-2.09-3.2-2-5.24.99-1.73 1.99-1.76 3-.01 1.46 2.68 4.17 4.11 6.21 6.21-2.67 1.64-4.89 0-7.21-.96z"/><path fill="#c4d3e1" d="M91.6 50.03c3.84-9.22 7.56-18.5 14.03-26.31 1.15-1.39 2.18-2.89 3.87-3.7.66.31 1.26.68 1.43 1.46-.97 8.17-1.06 16.33.51 24.46-1.25 1.65-2.49 3.31-3.92 5.2 2.04.05 2.5-1.84 3.87-2.19 1.82-.3 3.78-.4 4.48 1.67.77 2.28-.99 3.49-2.7 4.52-3.57 2.03-5.97 6.02-10.54 6.41-2.2-.42-2.27-2.5-3.12-3.97-.6-.98-1.67-.85-2.6-1.05-3.1-1.09-3.66-4.24-5.31-6.5z"/><path fill="#9faed0" d="M118.57 42.13c3.99-4.23 9.23-5.52 14.71-6.11 3.41-.37 6.09.93 7.63 4.15 1.49 3.11.78 6.06-1.69 8.04-4.84 3.89-9.53 8.14-15.77 9.84l.11-.22c.34-5.87-3.84-10.31-4.99-15.7z"/><path fill="#acb9d5" d="M111.43 45.94c-4.22-8.14-2.8-16.51-1-24.9 3.06-.42 4.74 1.85 4.46 3.97-.58 4.42 1.23 8.04 2.47 11.92-1.97 3-3.95 6-5.93 9.01z"/><path fill="#b5c6ce" d="M75.67 38.94c3.87 4.95 3.95 5.04 9.16.35 2.63-2.36 4.53-5.75 8.81-5.29-.6 4.43-.69 8.97-3.06 12.98-.21.26-.53.73-.67.68-4.76-1.91-9.69-.5-14.54-.78.01-2.65-1.87-5.37.3-7.94z"/><path fill="#acbad6" d="M118.57 42.13c4.19 3.05 3.41 8.81 6.67 12.44.29.32-1.08 2.14-1.68 3.26-.38-.29-.81-.54-1.12-.89-2.71-3.11-5.51-5.25-9.05-1.02-.45-.21-.76-.55-.93-1.02 4.24-3.62 4.23-3.67-1.07-5.95 2.59-2.06 4.23-5.14 7.18-6.82z"/><path fill="#8091be" d="M111.3 18.98c5.47-3.84 11.93-2.56 12.78 2.67.5 3.08-1.26 5.69-2.74 8.26-2.57-.95-4.55-2.69-5.51-5.18-.94-2.46-2.67-4.11-4.53-5.75z"/><path fill="#98a6ca" d="M111.3 18.98c1.71-.04 3.59.07 4.06 1.99.93 3.76 3.78 6.11 5.99 8.95-.71 2.69-2.26 4.9-3.98 7.02-3.02-3.12-4.67-6.55-3.41-11.12.71-2.61-1.8-3.57-3.52-4.77-.31-.34-.63-.68-.94-1.02.6-.36 1.2-.71 1.8-1.05z"/><path fill="#8697b2" d="M89.54 50.01c-.39 1.61-.79 3.22-1.18 4.83-.42.98-.13 2.55-1.96 2.36-1.63-2.88-3.34-5.16-7.43-4.03-2.1.58-3.04-1.42-2.99-3.52.15-.46.45-.78.88-.98 3.98-1.57 7.95-3.23 12.02-.18.56.42 1.07.73.66 1.52z"/><path d="M89.54 50.01c-3.37-.74-6.73-5.41-10.17.18-.62 1-1.74-1-2.8-1.27-.57-.62-.67-1.26-.08-1.93 4.69-3.6 9.39-1.44 14.09-.01-.06 1.11-.02 2.25-1.04 3.03z" class="st59"/><path fill="#d8dde2" d="M86.71 57.18l1.65-2.34c.33.35.66.69.99 1.04 1.21 2.02-.23 3.75-.61 5.6-.45 1.21-1.05 2.3-2.21 2.99-.99.43-1.99.41-2.99.06-1.77-.94-3.61-1.82-3.73-4.22 1.19-3.49 4.77-1.71 6.9-3.13z"/><path d="M91.6 50.03c3.3.72 2.8 5.25 6.04 6.03.19 2.15-1.12 3.02-2.95 3.45-2.75-.79-3.57-3.35-4.95-5.4.62-1.37 1.24-2.73 1.86-4.08z" class="st61"/><path fill="#8c9dc0" d="M89.74 54.1c2.62.58 3.08 3.27 4.7 4.83.71 1.59-.5 2.13-1.5 2.8-1.88.75-3.71 1.11-5.25-.71.56-1.71 1.11-3.43 1.67-5.14.12-.59.25-1.19.38-1.78z"/><path fill="#6275a9" d="M56.61 87.88c-1.74-2.89-3.54-5.75-5.18-8.69-.96-1.73-2.51-1.07-3.87-1.26.59-1.38 1.56-2.93-1.23-2.86-1.69-.06-3.95 2-4.79-1.28.62-.58 1.36-1.01 2.19-.99 5.37.1 10.72.81 16.1.09 1.13-.15 2.26.32 3.03 1.31.67 2.23.74 4.66 2.04 6.71-.16 3.03-2.73 4.07-4.67 5.63-1.13.65-2.01 1.99-3.62 1.34z"/><path d="M41.47 74.03c1.39 1.4 3.25.66 4.86 1.04-6 3.44-12.52 1.27-18.79 1.79.9-1.17 3.21-.88 3.14-3.05 2.72-1.33 5.63-1.15 8.54-1.06.9.16 1.7.5 2.25 1.28z" class="st64"/><path fill="#7386b5" d="M95.61 91.88c-.15 1.63-.17 3.58-2.66 2.69-5.02-1.8-2.31 1.79-2.45 3.4-2.25-.53-3.46 1.24-5 2.26-3.58.35-.47 3.49-1.96 4.72-.41.78-1.11.92-1.9.85-.96-.51-.99-1.67-1.65-2.41-.55.83-.65 1.89-1.37 2.62-2.9 1.68-1.75-1.04-2.2-2.02 1.08-3.06-1.68-4.24-3-6.12-1.02-4.81-.19-6.45 4.1-8.1 2.22 2.24.01 4.75.45 7.04.49-.83-.57-2.6.95-2.72 1.72-.14 1.7 1.62 2.12 3.34-.27-3.04-2.56-5.3-1.24-8.06 1.04-1.68 2.25-3.18 4.24-3.8 4.01.55 6.6-2.74 5.15-6.56-.33-.65-.36-1.32-.15-2.01.32-.66.82-1.12 1.5-1.39 1.75.33 3.1-.87 4.74-1.32-1.44.05-2.51 1.55-4 .8-.53-.92-.3-1.76.24-2.57 1.66-2.12 2.93-4.47 4.1-6.89.75-1.29 1.65-2.35 3.35-2.11.47.18.75.53.85 1.02-.41 2.15-.94 4.32 1.6 5.65 1.4.73 1.07 1.79.57 2.96-.94 2.21-.55 4.22 1.17 5.93 3.59 2.21 7.79 2.6 11.68 3.91 1.05.92 2.31 1.08 3.64.98 2.1 1.46 3.49 3.59 2.06 5.83-1.62 2.54-4.03 1.14-6.1.02-2.46-1.33-4.64-3.05-6.77-4.86.17-.61-1.11.36-.49.11.71 2.42-.91 2.99-2.71 3.42-1.43.26-2.83.36-4.1-.54-2.39-1.2-4.48-3.42-7.56-2.16-.25.27-.46.57-.57.92 1.13 1.97 3.58 1.48 5.05 2.76.34.32.51.73.51 1.2-.34 1.05-1.46.78-2.19 1.21z"/><path d="M72.46 97.93c-2.71 2.74-5.95.68-8.93 1-.08-2.6 2.14-3.8 3.39-5.6 1.73-1.53 2.38-4.22 5.06-4.75 1.11.19 1.85.8 2.22 1.86.14 2.66-1.07 5.01-1.74 7.49z" class="st33"/><path fill="#5d6e95" d="M55.49 92.9c.64-.67 1.28-1.35 1.92-2.02 1.79-2.53 4.47-4.13 6.58-6.33.89-.65 1.65-1.47 2.69-1.91 1.03-.03 1.73.47 2.18 1.38.18 2.38-1.35 3.89-2.74 5.49-1.45 1.54-2.98 2.95-5.15 3.4-2.05-1.98-2.91.79-4.39 1.09-1.04.31-1.31-.15-1.09-1.1z"/><path fill="#6e7ea7" d="M67.53 93.95c-1.33 1.66-2.67 3.32-4 4.98-.93.21-1.36-.08-1.1-1.08.54-1.54 2.65-3 .26-4.7.42-2.01 2.52-2.45 3.6-3.85.93-.8 1.93-1.24 3.14-.66.93 2.33-2.01 3.27-1.9 5.31z"/><path fill="#e0e2e7" d="M72.46 97.93c-.37-2.72 1.66-5.15.92-7.91-.2-1.96 1.26-1.83 2.5-1.99.51.05.99.23 1.42.51.43.4.47.84.11 1.31-3.09 1.79-3.49 4.92-4 8-.31.02-.63.04-.95.08z"/><path d="M62.43 97.85c.37.36.74.72 1.1 1.08-1.12 1.81-2.54 3.31-4.93 4.75.68-2.81 1.83-4.58 3.83-5.83z" class="st33"/><path fill="#7687ac" d="M55.49 92.9l1.09 1.09c-1.89.88-2.96 4.16-5.88 2.02.31-.34.62-.69.92-1.03 1.3-.7 2.59-1.39 3.87-2.08z"/><path fill="#e0e3e9" d="M66.64 90.02c-1.32 1.04-2.63 2.08-3.95 3.13-.57-.08-1.14-.17-1.71-.25 1.49-1.35 2.99-2.69 4.49-4.04.98-.22 1.39.15 1.17 1.16z"/><path fill="#a3b2ce" d="M85.48 99.84c1.11-2.14 1.9-5.11 5.02-1.88.33 1 .66 1.99.99 2.99-2 .57-4 .62-5.99-.07-.23-.23-.31-.46-.24-.69.07-.23.14-.35.22-.35z"/><path fill="#9faeca" d="M85.48 99.84c.01.35.01.69.02 1.04-.73 1.32 2.09 4.33-1.95 4.06-.72-1.32-.96-2.71-.98-4.23-.04-3.93 1.82-1 2.91-.87zm-6.86 6.14c.25-1.9-1.27-5.2 1.12-5.35 2.63-.17 1.36 3.3 1.9 5.15-1.01.07-2.02.14-3.02.2z"/><path fill="#41547a" d="M41.48 84.77c1.19.26 2 .69.92 1.99-2.09.36-4.18.71-6.66 1.13 1.55-2.43 3.63-2.8 5.74-3.12z"/><path fill="#6f80ae" d="M64.57 85.11c-1.96 2.44-4.04 4.74-7.15 5.76-.61-.64-1.21-1.27-1.81-1.91.34-.36.67-.73 1.01-1.09l2.91-1.95c1.78.39 2.98-2.85 5.04-.81z"/><path fill="#b7c6d8" d="M54.47 47c.56-1.39 4.95 3.11 3.08-2.01 4.73-.02 6.13-1.93 3.37-6.73 1.41 5.08 7.7 6.14 7.64 11.56l.03.67c-.47 2.36-1.39 4.58-2.24 6.82-3.01.73-4.21-1.84-5.93-3.36-1.33-1.17-2.68-2.31-3.98-3.52-.55-1.21-2.47-1.63-1.97-3.43z"/><path d="M68.55 49.82c1.97-.96 3.94-1.93 5.91-2.89.93.43 1.47 1.13 1.53 2.18-.05.93.24 1.87-.05 2.79-1.64 1.51-2.72 4.11-5.73 2.91a3.71 3.71 0 0 1-1.51-1.48c-.23-1.1-1.12-2.18-.18-3.34.01 0 .03-.17.03-.17z" class="st59"/><path fill="#8797af" d="M75.59 49.02c-.38-.69-.75-1.39-1.13-2.08-.72-5.31-1.69-10.64.85-16.59.17 2.66.3 4.65.43 6.63l-.06 1.97c.18 2.69-1.05 5.53.82 8.05.03.64.05 1.29.08 1.93l-.08.08c-.3.42-.6.41-.91.01z"/><path fill="#7a8aa9" d="M56.79 49.95c4.13 1.05 5.39 6.07 9.65 6.94 2.3-.17 2.53 1.69 3.13 3.19.48 3.5.4 6.69-4.16 7.32-.76.09-1.47-.03-2.03-.6-.38-1.7-1.21-3.24-1.86-4.84-3.11-4.52-7.65-7.63-11.9-11.57 2.39-.48 3.2 1.65 4.83 1.68 2.7.78 4.08 3.16 5.87 4.77-1.38-1.97-3.89-3.26-4.77-5.87-.06-.3-.1-.59-.12-.9.4-.57.86-.61 1.36-.12z"/><path fill="#6d7e9c" d="M53.5 64.97c-2.42.2-4.57-1.53-7.04-.95-3.65-.65-7.26-1.39-10.93-2.9 1.87-2.38 3.48.39 5.02-.33 4.72.88 9.53 1.36 14.08 3.07-.12.63-.76.74-1.13 1.11z"/><path fill="#adbbd1" d="M55.54 50.97c3.03 2.31 5.89 4.78 8.59 9.39-4.82-2.43-7.18-5.45-9.69-8.29l1.1-1.1z"/><path fill="#54647e" d="M56.79 49.95l-1.37.12c-2.2-1.73-4.62-3.22-6.51-5.95 2.88-.47 3.75 2.16 5.56 2.88l2.32 2.95z"/><path fill="#33446a" d="M53.5 64.97c.38-.37.75-.74 1.13-1.11 1.95.39 3.89.78 5.84 1.18.75.49 2.07-.01 2.33 1.34-.53 1.1-1.31 1.36-2.37.71-2.31-.71-4.62-1.41-6.93-2.12z"/><path fill="#93a3c0" d="M62.45 66.02l-1.98-.99c.7-.91-1.25-2.72 1.05-3.08 1.5.93 3.18 1.76 2.02 4.02-.35.4-.71.42-1.09.05z"/><path fill="#41547b" d="M41.47 74.03l-1.88-.12c-.42-1.33.31-2.09 1.35-2.68 1.94-.61 3.82-.56 5.57.59 2.67.36 5.34.72 8.01 1.09 3.25-1.94 7.24-.97 10.54-2.72.83-.15 1.63-.07 2.4.27 2.77 3.14.84 4.86-1.91 6.33-1.15.22-2.18 0-3.02-.87-.13-1.4-.88-1.98-2.3-1.96-6.25.05-12.5.05-18.76.07z"/><path d="M46.52 71.82l-5.93.21c-2.08.87-4.15 1.64-6.11-.25-.6-1.57-4.13-.79-2.99-3.74 4.37-1.18 8.75.92 13.12-.07-.84 2.01 3.23 1.59 1.91 3.85z" class="st64"/><path fill="#687ba9" d="M65.58 70.89c-3.23 3.17-7.26 1.91-11.05 2.01 1.48-2.43 2.67-5.15 5.9-5.81.77-.17 1.71-.03 2.02-1.07.36-.01.72-.03 1.08-.04.36.32.72.65 1.07.97 1.8.95 2.08 2.27.98 3.94z"/><path fill="#6b7c9d" d="M34.48 71.77c2.04.08 4.08.17 6.11.25-.33.63-.67 1.26-1 1.89-2.97-.03-5.94-.06-8.92-.1-.33-3.67 2.75-.98 3.81-2.04z"/><path fill="#90a0c4" d="M101.45 79.75c-.42-2.52-3.11-4.96-.34-7.6.69-.65.65-.85-.27-1.21-4.1-1.59-3.62-4.14-1.35-7 .43-.24.87-.24 1.31-.01 1.16 4.08 4.31 4.23 7.71 3.9l-.02.19c.37.31.93.4 1.04.99-4.99 2.84-3.32 6.82-1.85 10.77l-.32.31c-2 .42-4 .85-5.91-.34z"/><path fill="#b1c1d5" d="M108.51 67.82c-.16.04-.33.05-.47.12-5.71 2.74-5.71 2.74-7.47-3.88 2.21-3.06 5.33-4.49 8.95-5.01.71 3.04-2.39 5.65-1.01 8.77z"/><path fill="#6f7f9b" d="M109.52 59.05c-2.98 1.67-5.97 3.34-8.95 5.01l-1.07-.12.03.02c-.36-.32-.46-.7-.32-1.16.66-1.46 2.18-1.29 3.36-1.76l9.9-6.15.93 1.02c-1.3 1.05-2.59 2.09-3.88 3.14z"/><path fill="#7a8aa4" d="M109.53 69c-.35-.33-.69-.66-1.04-.99 3.18-.72 6.35-1.46 9.54-2.13.76-.16 1.57-.02 2.46.75-3.65.8-7.31 1.58-10.96 2.37z"/><path fill="#b4c3d9" d="M129.45 109.93c-1-.63-2-.64-3 .01-2.67-3.09-6.25-4.68-9.95-6.06-.7-.71-.54-1.44-.07-2.17-.84-3.09-5.28-2.6-5.9-5.89.35-2.37 1.75-1.8 3.28-1.26 3.13 1.11 5.93 2.62 9.61 2.8 5.16.25 8.01 7.23 6.03 12.57z"/><path fill="#8899c1" d="M104.51 87.95c2.87-5.73 5.83-2.76 8.84-.13.48.42 1.12.74 1.75.92 1.44.41 2.53 2.68 4.35 1.03 1.71-1.54-.28-2.99-.36-4.5-.02-.46-.39-.9-.59-1.35 4.92.57 9.77 5.98 9.94 11.08-8.05-1.74-16.22-2.97-23.97-5.94-.54-.39-.52-.76.04-1.11z"/><path fill="#7b8dba" d="M104.51 87.95c-.02.37-.03.74-.05 1.12-1.06.43-2.24.68-2.89 1.78-2.17 1.72-2.97-.79-4.38-1.42-1.8-1.31-5.01-.35-5.67-3.51l-.04.05c3.4-2.39 6.25.18 9.29 1.02 1.12.83 2.39 1.04 3.74.96z"/><path fill="#7e8dac" d="M110.53 95.82c2.51 1.47 5.04 2.89 7.5 4.44 1.19.75 1.23 1.45-.44 1.49-4.45-1.14-9.01-2.07-11.6-6.52.02-.51.19-.95.52-1.33 1.33.64 2.67 1.28 4.02 1.92z"/><path fill="#657496" d="M106.5 93.9c0 .4-.01.8-.01 1.2-3.92.61-6.61-1.47-9.02-4.15-.02-.31-.01-.62.03-.94-.33-.17-.46-.38-.39-.61.08-.24.16-.36.26-.36 1.51.33 2.42 2.07 4.19 1.8 1.65 1.03 3.3 2.04 4.94 3.06z"/><path fill="#415074" d="M101.45 79.75l5.91.33c2.36 1.3 5.48.62 7.48 2.87-4.65-.27-9.12-1.3-13.39-3.2z"/><path fill="#a2b1cf" d="M97.47 90.96c3.01 1.38 6.01 2.76 9.02 4.14 3 3.38 7.74 3.86 11.09 6.65-.85.46-1.11 1.22-1.09 2.13-2.94-2.45-7.11-2.43-9.98-5.02-3.05-3.25-7.48-4.34-10.91-6.99.37-.83 1.12-.87 1.87-.91z"/><path fill="#4a5b82" d="M92.55 61l1.89-2.07c1.06-.96 2.13-1.92 3.19-2.88.96.18 1.87-2.36 2.87-.06-.99 1.63-2.01 3.24-3.48 4.5-1.37 1.33-2.73 2.68-4.05 4.07-1.74 1.2-2.33 3.9-5.02 3.86-.44-.17-.76-.48-.94-.92-.07-3.79 3.27-4.68 5.54-6.5z"/><path d="M96.4 59.87c1.37-1.29 2.74-2.58 4.1-3.87.4 1.8.64 3.66 2.05 5.05-.99.67-1.99 1.33-2.98 2-2.91.79-3.35-.89-3.17-3.18z" class="st61"/><path fill="#6e7faa" d="M75.59 49.02c.3-.03.6-.04.9-.02.49 1.6.34 3.99 3.15 3.04 4.86-1.64 6.78.59 7.07 5.15-.84 3.66-4.63.75-6.2 2.78-1.25 1.48-2.98 2.54-3.87 4.35-1.21.83-2.52 1.22-4 .96-1.48-.95-2.23-2.39-2.71-4.02-.19-1.97-1.18-3.71-1.67-5.59-.26-1.03-1.16-2.68 1.22-2.62.33.32.66.65.99.97 3.39 3 3.39 3 5.06-2.04l.06-2.96z"/><path fill="#b3b8bd" d="M76.45 64c-.79-3.5 1.69-3.71 4.06-4.03-.08 2.2 2.45 2.24 3.13 3.81l-.42.6c-1.77.93-3.63 1.49-5.66 1.25-.73-.3-1.28-.72-1.11-1.63z"/><path fill="#7686ad" d="M92.55 61c-1.28 2.63-4.7 3.69-5.1 6.97-2.8-.75-2.98-2.15-1.03-4.09.42-.95.84-1.91 1.26-2.86 1.62-.01 3.24-.01 4.87-.02z"/><path fill="#b1b3bc" d="M86.42 63.88c-.65 1.61-.39 3 1.03 4.09h.08c1.63.74 3.49 1.34 2.36 3.79-.35.41-.8.59-1.35.55-3.39-1.66-6-3.81-5.16-8.15l.27-.38c.92.03 1.84.07 2.77.1z"/><path fill="#d0d4d8" d="M64.57 85.11c-1.8-.44-3.17 1.79-5.05.82 1.49-1.82 3.89-2.73 5-4.94.37-.3.78-.38 1.24-.25.75.58 1.36 1.21.83 2.26-.1 1.26-.86 1.88-2.02 2.11z"/><path fill="#5c687f" d="M65.4 81.04l-.44-.05h-.45c-1.85-1.23-3.12-2.69-1.98-5.08 1.04.01 2.08.03 3.13.04 1.32 1.77 1.34 3.47-.26 5.09z"/><path fill="#767676" d="M83.37 64.16c.67 3.35 3.22 5.43 5.26 7.86 1.22 1.36 1.19 3.01 1.1 4.67-.04.72-.09 1.45-.13 2.17-.06 3.57-2.08 5.74-5.14 7.16-1.79.34-1.79 3.03-3.89 2.96-.99.73-1.96.79-2.94-.03-.33-.05-.66-.09-.99-.14-1.17-1.24-3.8 1-4.33-1.8 2.65-1.98 5.38-3.78 8.54-4.93 2.6-.95 3.41-2.69 2.07-5.51-1.83-3.85-2.21-8.38-5.42-11.59 1.97-.21 3.79-1.47 5.87-.82z"/><path fill="#6275a2" d="M89.67 71.75c.22-1.8-1.16-2.68-2.15-3.79 2.57-.21 2.68-3.47 4.98-4.01 2.37-1.4 2.95.77 4 2.01-.91 2.66-2.1 5.14-4.36 6.95-.82-.4-2.02.03-2.47-1.16z"/><path fill="#f4f6f7" d="M84.46 86.02c1.71-2.39 3.43-4.77 5.14-7.16.71-.26 1.5-1.21 2.15-.24.75 1.12.56 2.63-.38 3.37-2.01 1.58-2.63 3.72-3.17 6.06-1.56-.09-2.55-1.25-3.74-2.03z"/><path fill="#435682" d="M77.63 88.95l2.93.03c.31 2.92.62 5.85.95 8.99-1.59-.76-1.01-2.9-2.76-3.27-.19 1.06-.39 2.13-.59 3.2-.26 0-.51-.01-.77-.01v-8.04c.16-.29.23-.59.24-.9z"/><path fill="#8c9bc0" d="M96.5 65.96c-1.33-.67-2.67-1.34-4-2.01.94-1.7 2.3-3.01 3.9-4.09.78 1.33 1.18 3.05 3.17 3.18-.03.3-.05.61-.06.91-1.44.01-2.46.66-3.01 2.01z"/><path fill="#465781" d="M100.77 86.98l-9.29-1.02c3.67-4.89 6.29-.15 9.29 1.02z"/><path fill="#384870" d="M97.38 89.05c.04.32.09.65.13.97-2.19-.63-4.49-1.01-6.53-1.96-2.13-1-1.24-1.83.55-2.15 1.95 1.05 3.9 2.1 5.85 3.14z"/><path fill="#526695" d="M91.26 74.74c2.2-.85 4.4-1.69 6.61-2.54-1.92 2.48-3.9 4.68-7.25 3.71-.47-.76-.01-1.02.64-1.17z"/><path fill="#d6d8de" d="M91.26 74.74c-.21.39-.43.78-.64 1.17-.29.26-.59.52-.88.77-1.47-1.3-1.29-2.98-1.1-4.67.35-.09.69-.17 1.04-.26.85.32 2.08-.15 2.47 1.16-.3.61-.6 1.22-.89 1.83z"/><path fill="#bdc0c7" d="M72.42 87.06c1.41.59 2.82 1.17 4.22 1.75-1.11.32-2.5-.1-3.26 1.2-.65-.33-1.29-.66-1.94-.99-.59.44-1.2.53-1.83.07-1.2-.36-2.03.48-2.98.92-.39-.39-.78-.77-1.17-1.16l3.1-4.75c3.14-1.42 3.6.63 3.86 2.96z"/><path fill="#3d4d71" d="M69.62 89.09c.61-.02 1.22-.05 1.83-.07-1.04 1.85-2.03 3.75-3.91 4.93-1.96-2.75 1.61-3.14 2.08-4.86z"/><path fill="#33362c" d="M72.42 87.06c-1.43-.79-1.42-3.46-3.85-2.95L66.59 83c-.39-.65-.79-1.3-1.18-1.96.08-1.7.17-3.39.25-5.09 1.71-1.22 2.98-2.61 1.87-4.9 0-3.4 1.2-5.84 4.98-6.22 1.25-.58 2.52-1.06 3.94-.83.35.33.7.65 1.05.98 6.68 2.02 4.1 9.51 7.81 13.36.85.88-.04 2.86-1.22 3.43-3.84 1.84-7.21 4.78-11.67 5.29z"/><path fill="#8999bc" d="M69.49 53.05c-1.95 2.9 2.76 5.04.91 7.92-1.16.48-1.4-.56-1.91-1.16-.68-.97-1.36-1.95-2.04-2.92-1.22-2.88.69-4.81 2.09-6.9.31 1.02.63 2.04.95 3.06zm6.05-1.08c1.74 2.35.63 4.78-1.24 5.61-2.77 1.23-3.23-1.59-3.82-3.57 2.52 1.39 2.8-2.77 5.06-2.04z"/><path fill="#dadee3" d="M68.48 59.81c.64.39 1.28.77 1.91 1.16.36 1.47 2.23 2.12 2.12 3.86-2.52 1.38-3.65 3.88-4.98 6.22-.65-.05-1.3-.1-1.95-.16-.05-1.38.19-2.83-.98-3.94 4.18-.81 4.47-3.74 3.88-7.14z"/><path fill="#15150d" d="M76.02 83.4c-6.55-4.15-6.62-10.56-1.46-13.42.98-.54 2.01-1.33 3.12-.17.9.94.5 1.81-.17 2.63-1.19 1.46-1.06 2.95-.47 4.64.85 2.43-4.52 2.36-1.02 6.32z"/></svg>