<svg xmlns="http://www.w3.org/2000/svg" viewBox="0 0 512 512"><path d="M75.051 0H15.068C6.787 0 .073 6.714.073 14.996v60.983c0 8.282 6.713 14.996 14.996 14.996 8.282 0 14.996-6.714 14.996-14.996V29.992h44.987c8.282 0 14.996-6.714 14.996-14.996C90.047 6.714 83.333 0 75.051 0zm421.881 0h-59.983c-8.282 0-14.996 6.714-14.996 14.996s6.713 14.996 14.996 14.996h44.987v45.987c0 8.282 6.714 14.996 14.996 14.996s14.996-6.714 14.996-14.996V14.996C511.928 6.714 505.214 0 496.932 0zM75.051 481.864H30.064v-45.987c0-8.282-6.714-14.996-14.996-14.996S.072 427.595.072 435.877v60.983c0 8.282 6.713 14.996 14.996 14.996h59.983c8.282 0 14.996-6.714 14.996-14.996s-6.714-14.996-14.996-14.996zm421.881-60.983c-8.282 0-14.996 6.714-14.996 14.996v45.987h-44.987c-8.282 0-14.996 6.714-14.996 14.996s6.714 14.996 14.996 14.996h59.983c8.282 0 14.996-6.714 14.996-14.996v-60.983c0-8.282-6.714-14.996-14.996-14.996zM472.37 123.023L263.517 2.021a14.995 14.995 0 0 0-15.035 0L39.544 123.022c-4.606 2.669-7.481 7.638-7.481 12.966 0 .03.003.06.003.089v239.924c0 5.379 2.923 10.413 7.63 13.063L248.483 509.98a15.242 15.242 0 0 0 7.518 2.02c2.707 0 5.352-.766 7.518-2.02l208.702-120.917.104-.06c4.837-3.49 7.444-6.423 7.517-12.821.001-.06.006-.119.006-.179V136.079c0-.03.003-.06.003-.089a15.035 15.035 0 0 0-7.481-12.967zM241.004 470.986L77.178 376.069l126.299-72.429c7.185-4.12 9.669-13.284 5.548-20.468-4.119-7.185-13.283-9.668-20.468-5.548L62.055 350.116V161.909l178.949 102.77v206.307zM256 238.706L77.156 135.945 256 32.327l178.844 103.618L256 238.706zm193.954 111.41l-126.511-72.493c-7.184-4.119-16.348-1.637-20.468 5.548-4.121 7.185-1.637 16.348 5.548 20.468l126.299 72.428-163.827 94.917V264.679l178.958-102.77v188.207z"/></svg>