<svg xmlns="http://www.w3.org/2000/svg" viewBox="0 0 24 24"><path fill="#fff" d="M21.55 23.33H2.25c-1.1 0-2-.9-2-2V2.45c0-1.1.9-2 2-2h19.31c1.1 0 2 .9 2 2v18.87c-.01 1.11-.9 2.01-2.01 2.01z"/><path fill="#fff" d="M11.11 16.93c-1.79-.03-2.78 1.52-2.37 3.38 1.04-.41 2.26-2.15 2.37-3.38z"/><path fill="#2e4560" d="M8.29 15.25v-.27c.2-.03.39-.05.58-.08.24-.03.35-.17.35-.41V9.44c0-.21-.1-.32-.29-.38-.1-.04-.24-.07-.36-.07-.25-.01-.35-.12-.26-.4.2.02.41.03.62.03 1.12.01 2.23 0 3.34.01.88.01 1.7.24 2.33.88.99.99 1.13 2.2.75 3.48-.37 1.25-1.3 1.96-2.57 2.2-.13.03-.27.05-.4.05-1.35.01-2.7.01-4.09.01zm2.23-.29c.32 0 .61.02.91 0 1.35-.07 2.33-.85 2.61-2.15.1-.5.11-1.02.09-1.52-.05-.86-.41-1.57-1.22-1.98-.75-.37-1.55-.39-2.37-.37-.02 2.02-.02 4.01-.02 6.02z"/><path fill="#66bcb3" d="M3.46 14.87c.44-1.08 2.33-2.39 3.39-2.37.02 1.55-1.24 2.76-3.39 2.37zm7.68-8.02c-1.54 0-2.81-1.2-2.4-3.43 1.29.81 2.09 1.93 2.4 3.43zm-4.28 4.28c-1.49-.31-2.61-1.1-3.42-2.38 1.72-.54 3.59.76 3.42 2.38zm4.25 5.8c-.1 1.23-1.33 2.98-2.37 3.38-.4-1.85.59-3.41 2.37-3.38zm3.77 3.38c-1.04-.37-2.34-2.23-2.39-3.38 1.5-.29 2.66 1.33 2.39 3.38zm0-16.84c.39 2.21-.9 3.39-2.37 3.38-.05-1.03 1.33-3.02 2.37-3.38zm2.06 9.04c1.01-.07 2.83 1.18 3.41 2.33-1.51.66-3.45-.66-3.41-2.33zm3.41-3.79c-.51 1.12-2.35 2.4-3.42 2.38.03-1.33.98-2.79 3.42-2.38z"/><path fill="#2e4560" d="M7.48 3.42c-.4 1.05-.36 2.12-.17 3.2-1.11-.48-1.57-1.59-1.14-2.54.23-.5.75-.77 1.31-.66zm-.17 13.62c-.18 1.08-.23 2.15.17 3.2-.66.1-1.22-.26-1.39-.89-.2-.73-.01-1.36.54-1.87.18-.17.41-.32.61-.48.03.02.04.03.07.04zm9.08 3.23c.41-1.09.37-2.15.18-3.22 1.21.5 1.6 1.77 1.05 2.67-.26.43-.7.57-1.23.55zm.17-13.61c.21-1.12.24-2.19-.16-3.22.49-.15 1.08.15 1.3.66.24.56.22 1.12-.1 1.64-.24.39-.58.68-1.04.92zM4.77 11.42c-.36 0-.79.05-1.22-.01-.78-.1-1.15-.62-1.05-1.39.04-.36.17-.71.27-1.12.34.49.63.94.95 1.35.33.43.71.8 1.05 1.17zm9.88-8.62c-.47.33-.91.61-1.33.94-.41.32-.78.68-1.14.99-.08-.5-.11-1.09.17-1.66.19-.39.52-.58.96-.6.46-.01.89.13 1.34.33zM8.99 20.96c.44-.3.88-.59 1.3-.91.41-.32.78-.68 1.14-.99.09.46.1 1.03-.13 1.58-.18.45-.54.71-1.02.67-.44-.03-.88-.16-1.32-.24.02-.05.02-.09.03-.11zm3.12-2.01c.44.4.81.78 1.22 1.11.41.32.85.6 1.31.92-.57.24-1.13.45-1.75.24-.39-.13-.62-.46-.68-.85-.06-.46-.06-.95-.1-1.42zM8.98 2.75c.37-.09.72-.22 1.09-.26.73-.09 1.25.3 1.35 1.04.06.44.01.88.01 1.39-.68-.93-1.53-1.55-2.46-2.08 0-.03 0-.06.01-.09zm-4.13 9.47c-.87.63-1.47 1.48-2.04 2.45-.25-.58-.44-1.12-.29-1.71.12-.44.45-.69.87-.76.47-.08.95-.07 1.43-.1.02.04.02.08.03.12zm14.06-.82c.92-.66 1.52-1.52 2.06-2.44.27.4.44 1.15.33 1.59-.1.43-.39.68-.79.81-.51.15-1.02.15-1.6.04zm2.08 3.27c-.55-.95-1.16-1.81-2.08-2.48.63-.1 1.18-.13 1.73.1.44.18.67.51.69.98.02.49-.12.93-.34 1.4zm-.58 1.64c-.17.74-.73 1.25-1.39 1.26-.85.02-1.45-.4-1.66-1.16 1.03.24 2.04.12 3.05-.1zM6.49 7.17c-.51-.01-1.01-.07-1.51-.05-.5.03-.99.12-1.49.18.05-.58.67-1.18 1.25-1.23.91-.06 1.59.38 1.75 1.1zm-3.01 9.18c.51.06 1.02.15 1.52.18.5.02.99-.03 1.49-.05-.11.65-.76 1.12-1.59 1.11-.68-.01-1.31-.56-1.42-1.24zm13.89-9.12c.14-.67.72-1.13 1.45-1.16.8-.03 1.35.4 1.59 1.26-1-.21-2.01-.33-3.04-.1z"/></svg>