<svg xmlns="http://www.w3.org/2000/svg" viewBox="0 0 149.42 147.48"><path fill="#95b8b4" d="M86.43 125.83c.33 6.2-1.57 11.54-6.14 15.85H75.3c-6.25-4.8-8.8-11.16-8.05-18.93-.3-.87.54-1.44.81-.94 1.57 2.86 3.55 2.79 6.06 1.38 1.01-.57 2.27-.46 3.4-.11 2.82.87 5.46 2.69 8.68 1.53.23-.08.49.73.23 1.22z"/><path fill="#569c94" d="M4.38 72.76c1.65-2.52 4.03-3.86 6.98-4.24 1.59 1.79 2.84 4.08 5.77 3.84 3.92.36 7.78-.29 11.74-.67-1.15-.45-2.36-1.13-1.7-2.51.82-1.72 2.66-1.6 4.27-1.77 1.75-.02 3.5-.08 5.17.57 1.48 2.2 4.01 1.37 6.02 2.06 2.39.99 4.66 2.03 2.05 5.04-1.66 1.3-3.56.33-5.34.57-8.55 1.82-16.97 4.3-25.93 3.26-3.16-.37-6.21-.66-9.05-2.16.02-1.33.02-2.66.02-3.99z"/><path fill="#72aca6" d="M138.34 57.7c2.63.39 3.84 2.85 5.89 4.08v4.99c-2.21 1.57-3.94 3.95-6.99 4.09-1.02-1.11-1.35-2.6-2.1-3.87-2.64-4.49-1.83-6.75 3.2-9.29z"/><path fill="#639f98" d="M92.28 2.83c2.91 1.5 3.59 3.91 2.83 6.91-3.51-1.94-6.84-2.58-10.03.77-.84.88-2.56 1.82-2.86-.79 1.61-3.07 4.42-4.9 7.07-6.89z"/><path fill="#98c3bf" d="M39.6 116.85c.92-1.7 1.84-3.41 2.76-5.11 5.75-.88 8.32-3.19 9.03-9.19.28-2.37-1.39-5.2-3.62-5.58-4.82-.83-3.15-2.44-1.11-4.53 2.36.06 4.29-.98 6.1-2.36 1.77-1.16 3.57-2.22 5.82-1.38.45.15.87.35 1.28.59 3.73 2.73.41 4.86-.6 7.2-.54 1.38-2.64 2.59-1 4.2 1.25 1.23 2.69-.04 3.98-.66 1.79-.85 3.52-2.79 5.51-.31.28.69.26 1.37-.03 2.05-1.59 1.38-2.86 3.12-4.55 4.39-2.99 2.25-3.91 5.05-2.67 8.58-1.6 4.67-5.17 7.47-9.28 9.76-2.54-4.59-7-6.25-11.62-7.65z"/><path fill="#b5d5d2" d="M47.5 92.83c-1.34.42-1.32 1.77-2.79 3.45 3.36-1.03 6.56-2.83 6 2.22-.14 1.31 1.39 1.1 2.28 1.37.99.3 1.54 1.47.96 1.84-2.79 1.76-2.32 4.92-3.5 7.34-1.79 3.67-4.42 4.73-8.09 2.69.82-2.62 3.38-4.42 3.67-7.45-2.09.47-2.28 2.56-3.66 3.44-4.92 1.52-11.22-1.62-11.98-5.97 4.13-4.7 9.12-8.26 14.69-11.03 1.29-.71 2.53-1.05 3.54.45.13.88-.02 1.58-1.12 1.65z"/><path fill="#bad7d4" d="M67.31 101.73c-.01-.67-.01-1.34-.02-2.01-.63-1.73-.28-3.41.28-5.08.37-.69.88-1.17 1.74-1.09.37.31.65.68.84 1.13.5 2.05.25 4.49 2.88 5.41 1.03.55 1.38 2.12 2.92 1.89 1.54-.15 3.09-.57 4.49.49 1.6-1.26-1.1 2.68 1.29 1.01 1.87-1.3 3.48.1 4.34 1.88 1.01 2.11 1.92 4.35-.52 6.21-2.39 1.83-5.16 2.86-8.02 3.69-3.88.56-6.73 4.48-11.1 3.44-.09-4.95 2.42-9.91-.07-14.85-1.03-1.3.91-1.29.95-2.12z"/><path fill="#acc6c4" d="M66.42 118.71c3.79-.89 6.52-4.66 10.88-4 2.2 2.19 4.29 2.04 6.39-.19.7-.75 1.15-2.35 2.62-1.51 1.02.58.47 1.79.48 2.74.01.98-.19 1.98.31 2.9.07 2.42.85 4.91-.68 7.18-3.27-2.17-1.29 2.54-3.1 2.29-3.61-4.36-6.63-5.11-11.53-2.36-4.3 2.41-3.05-1.33-3.7-3.05-.04-.1-.28-.18-.41-.17-.15.01-.29.14-.43.22-1.24-1.16-.8-2.65-.83-4.05z"/><path fill="#a1c8c4" d="M34.3 93.68c-1.02.62-2.04 1.25-3.06 1.87-1.16-.48-3.2-.43-3.07-1.92.37-4.32-2.71-3.37-5.05-3.76-2.94-.48-5.45-1.3-2.8-4.98 3.51-2.09 6.86-4.5 11.07-5.05 1.42.47 1.7 1.66 1.88 2.9 2.08 1.13 4.11-.67 6.17-.11.72.05 1.42.22 2.09.5 1.03.63 2.24 1.15 1.9 2.73-1.01 1-2.36 1.23-3.64 1.3-4.23.22-6.09 2.3-5.49 6.52z"/><path fill="#8dbcb7" d="M20.32 84.9c-.98 2.83.08 4.03 3 3.85 2.65-.16 5.22.08 7.52 1.66-2.46 2.62-2.46 2.62.4 5.14-4.22 1.15-8.19 3.71-12.86 2.2-3.38-2.9-4.01-6.33-2.03-11.15.99-1.35 2.67-1.08 3.97-1.7z"/><path fill="#6ca59f" d="M41.33 83.73c-.71-.06-1.43-.11-2.14-.17-.27-.74-.76-1.36-1.18-2.03-.13-1.67-2.84-1.52-2.49-3.53 1.22-.88 3.17-.56 3.83-2.35 1.45-1.51 3.31-.73 5-.91 2.25-1.48 3.97-.86 5.21 1.38 1.33 2.41 3.27 4.43 4.33 7.01.23.48.39.97.52 1.48.54 2.31.43 4.31-2.4 5-1.33-.05-2.81.09-2.74-1.94.04-.29.05-.57.01-.86-1.84-3.09-4.64-3.75-7.95-3.08z"/><path fill="#8cbcb7" d="M38.4 113.78c-1.52 3.59-4.39 5.28-8.11 5.79-5.04-1.34-5.04-6.19-6.82-9.8l3.02-3.95c2.83-.41 5.25.35 6.62 2.95 1.23 2.32 4.93 1.88 5.29 5.01z"/><path fill="#a5ccc8" d="M38.4 113.78c-4.82-1.37-7.26-6.32-11.91-7.95.77-1.87 2.22-3.08 3.9-4.06 2.9 4.19 7.36 5.23 11.98 5.97-.35 2.64-2.59 4.05-3.97 6.04z"/><path fill="#75aea8" d="M39.6 116.85c2.01 2.6 4.06-1.17 6.65.23 3.31 1.79 2.85 5.3 4.96 7.41-.97.71-1.95 1.41-2.92 2.12-2.31-2.23-4.46-4.62-8.23-2.41-1.02.6-2.5-.42-3.44-1.44.99-1.96 1.98-3.94 2.98-5.91z"/><path fill="#549a92" d="M36.61 122.77c2.05-.23 3.81.7 6.26-.94 2.28-1.53 4.36 2.16 5.41 4.79-1.13.67-2.22 1.43-3.41 1.99-5.71 2.69-8.75.53-8.26-5.84z"/><path fill="#b6d5d2" d="M34.3 93.68c-2.82-5.82-2.79-5.7 3.24-7.21 1.94-.49 3.82-.73 5.78-.71 1.17.23 1.9.91 2.12 2.1-3.71 1.94-7.43 3.88-11.14 5.82z"/><path fill="#549992" d="M16.34 86.59c.29 3.79-.46 7.77 2.03 11.15-5.9-.21-8.73-2.29-8.02-6.08.61-3.19 3.44-4.03 5.99-5.07z"/><path fill="#b0d2ce" d="M67.31 101.73c1.04 1.31-1.24 1.15-.95 2.13-.86 4.22-2.44 8.05-5.87 10.88-4.27-1.37-1.79-5.43-1.08-6.27 2.16-2.6 4.37-5.57 7.9-6.74z"/><path fill="#7ab0ab" d="M23.47 109.77c3.97 2.09 2.56 7.91 6.82 9.8-3.16.37-6.39.75-8.3-2.61-1.56-2.73-.27-5.05 1.48-7.19z"/><path fill="#92beba" d="M45.44 87.86c-.71-.7-1.41-1.4-2.12-2.1-.66-.68-1.33-1.35-1.99-2.03 4.43-2.79 7.05-1.77 7.95 3.09-1.28.35-2.56.69-3.84 1.04z"/><path fill="#90beb9" d="M35.52 78c.46 1.56 4.24.58 2.77 3.62-1.76 1.34-3.6 2.46-5.97 1.95.19-1.37-.29-2.56-.93-3.73 1.38-.61 2.75-1.22 4.13-1.84z"/><path fill="#86b5b0" d="M49.27 87.67c.76 1.21 1.98 1.03 3.14 1.07.28.4.32.83.16 1.28-1.16 1.12-2.27 2.33-4.15 1.76-.82-1.26-2.11-1.06-3.34-1.06 1.07-1.47 2.62-2.28 4.19-3.05z"/><path fill="#bdd6d4" d="M95.16 10.73c-.68 6.9-1.75 13.72-4.7 20.09-5.32 2.45-8.56 7.6-13.55 10.49-3.26.14-3.72-2.85-5.23-4.67-.94-2.6.3-5.17.19-8.19-.27 3.02-.43 5.63-.98 8.18-5.45 5.01-9.33 4.96-12.27-.67.63 3.64.05 5.97-3.89 5.49-1.59-.7-2.42-1.9-2.39-3.66-1.02-4.74-5.65-7.74-6.12-12.75-.27-2.28 1.59-2.34 2.93-2.46 3.47-.32 6.99-.69 10.24 1.15.43.68.87 1.36 1.44 2.25 1.35-2.68-.61-5.88 1.38-8.3 2.11 2.48 4.9 2.89 7.92 2.55 1.74-.19 3.53-.91 5.1.52.28.87-.15 2.21.94 2.51 1.12.31.86-1.03 1.26-1.63.99-1.5.35-3.58 1.81-4.89 5.61-.33 10.07-3.34 14.59-6.23.46-.07.91 0 1.33.22z"/><path fill="#bcd3d0" d="M52.33 37.8c.67.98 1.33 1.96 2 2.95.88.96 2.01 1.98 1.3 3.36-.88 1.7-2.5.9-3.89.72-.94-.28-1.69-.87-2.39-1.54.94 1.28 2.71 1.72 3.37 3.29.15.45.2.91.14 1.39-.22.73-.7 1.2-1.41 1.44-.48.06-.96.09-1.37-.25-.2.56.34.38.55.51 3.22 2.08 5.82 4.77 7.99 7.91-.09 1.8-.54 3.47-1.85 4.81-1.97.65-3.72-.31-5.55-.71-4.91-1.21-9.81-2.5-14.54-3.18 2.39 1.01 5.93-.16 7.82 2.99-5.09 3.52-10.76 1.32-16.16 1.54-1.91.08-3.89-.38-5.85-.33-2.85.67-4.14-1.87-6.13-2.98-.69-.89-.7-1.96-.03-2.68 2.69-2.89 2.05-7.05 4.02-10.18 8.02 1.72 15.3 5.73 23.36 7.54-5.51-4.55-11-8.99-15.51-14.48.66-1.4 2.09-2.02 3.16-3 2.84-2.6 6.37-4.75 4.48-9.61-.27-.69.05-2.07 1.59-1.52 4.96 4 9.93 8 14.9 12.01z"/><path fill="#60a099" d="M22.47 62.69c5.85-2.24 11.95.05 17.87-.95 1.25-.21 2.66.37 3.72-.78 1.98-1.96 4.02.3 6.02-.09 2.55.58 4.94 1.71 7.53 2.11 1.69.72 3.77 1.37 3.23 3.71-.56 2.44-2.71 1.99-4.51 1.66-2.11-.39-3.28 1.36-4.92 2.02-2.63.71-5.07-.22-7.53-.9-.97-1.3-2.82-1.66-3.54-3.25-.17-.39.4-.83.35-.8-4.07 2.41-8.16-.54-12.22.11-.46-.14-.86-.39-1.18-.75-1.17-1.7-3.55-.61-4.82-2.09z"/><path fill="#b5d4d1" d="M27.3 64.77c.33 0 .65.02.98.06.77 1.4 3.48 1.3 2.89 3.75-1.12.4-2.69-.42-3.48 1.36 1.61 1.87 4.14.18 6.41 1.9-6.1 1.6-11.8 2.15-17.63 1.79-1.87-1.58-3.95-3.05-3.22-6.02 4.3-2.84 9.33-2.05 14.05-2.84z"/><path fill="#a0c8c4" d="M37.42 25.78c-.26.39-.8.82-.75 1.16.34 2.22 2.2 5.71.94 6.39-3.44 1.86-5.25 5.98-9.43 6.58-1.21-1.75-2.42-3.5-3.62-5.26.69-4.42 5.68-9.95 9.85-10.93 1.01.69 2.01 1.38 3.01 2.06z"/><path fill="#abcecb" d="M59.38 23.74c-4.32 1.09-9.02-1.58-13.17 1.31-1.08-.85-1.97-1.81-1.72-3.35 1.59-5.8 8.62-8.98 13.08-5.91 1.09 2.54 1.81 5.17 1.81 7.95z"/><path fill="#97c1bd" d="M75.22 20.77c-3.89.08-7.74 2.36-11.73-.34-1.33-.9-.91-1.82-1.28-2.74-.12-2.56.14-5 2.02-6.98.64.03 1.53-.4 1.87.11 2.05 3.01 4.92 3.54 8.22 2.99 1.8 2.12.77 4.61.9 6.96z"/><path fill="#a2c9c5" d="M20.34 46.85c1.25 5.09-1.85 8.83-3.99 12.86-1.16-.39-2.28-.85-2.96-1.95-2.54-5.06-.77-10.5 3.83-11.81 1.23-.37 2.09.57 3.12.9z"/><path fill="#75ada7" d="M74.31 13.81c-3.27 2.55-6.18 1.74-8.12-1.49-.61-1.01-1.83-.55-1.97-1.61.85-2.74 2.7-4.24 5.57-3.75 3.79.65 3.92 3.96 4.52 6.85z"/><path fill="#7bb1ab" d="M34.42 23.73c-3.65 3.32-7.25 6.67-9.85 10.93-1.25-1.77-2.04-3.71-2.08-5.9 1.01-4.78 5.01-5.74 8.85-6.89 1.02.61 2.05 1.23 3.08 1.86z"/><path fill="#62a29b" d="M17.21 45.94c-3.6 3.18-4.43 7.27-3.83 11.81-1.44-.58-2.49-1.64-3.24-2.94-1.27-2.24-3.28-4.4-1.6-7.27 1.62-2.78 4.27-1.86 6.69-1.73.66.04 1.32.09 1.98.13z"/><path fill="#7dafaa" d="M95.16 10.73c-.29.07-.58.12-.87.16-2.17.09-4.09.63-5.86 2.1-2.41 2-5.17 2.82-8.09.8.59-1.37.64-3 1.87-4.07 1.88 2.13 2.5-.51 3.35-1.1 5.03-3.48 5.77-3.47 9.55 1.12.02.33.03.66.05.99z"/><path fill="#acc7c4" d="M80.34 13.8c3.23.07 6.31.15 8.63-2.96 1.41-1.89 3.54-.99 5.31.06-4.26 3.9-8.67 7.43-15.06 5.86.38-.99.75-1.98 1.12-2.96z"/><path fill="#96c2bd" d="M57.57 15.79c-4.13-1.15-10.29 1.64-13.08 5.91-.29-1.67-.58-3.34-.87-5 3.06-3.59 7.37-4.14 11.64-4.8 1.53.85 1.94 2.36 2.31 3.89z"/><path fill="#67a29c" d="M55.27 11.9c-3.53 2.45-7.91 2.84-11.64 4.8 1.71-6.6 5.38-8.11 11.64-4.8z"/><path fill="#64a19a" d="M31.33 21.86c-2.6 2.75-6.97 3.21-8.85 6.89-.29-7.46 2.33-9.5 8.85-6.89z"/><path fill="#86b8b3" d="M13.24 67.61c1.07 2.01 2.15 4.02 3.22 6.02-3.2-.2-5.29-1.52-5.11-5.11.64-.3 1.26-.61 1.89-.91z"/><path fill="#bfdad7" d="M126.26 74.77c-3.38 2.14-7.12.5-10.66 1-2.4.34-4.98-.78-7.23.86-1.25 1.38-2.69 1.25-4.21.54-3.68-4.84-3.15-9.08 1.5-12.16 3.97-1.24 7.96-2.4 12.13-2.77 7.86-1.36 11.5 4.02 8.47 12.53z"/><path fill="#b3d0cd" d="M87.11 118.66c-1.59-1.38-.21-3.48-1.36-5.23-1.13 3.76-3.76 4.65-7.22 4.3-2.57-.26-1.86-1.6-1.22-3.02 1.13-2.94 4.7-1.08 6.56-3.44 1.08-1.38 2.92-1.73 1.77-4.03-.64-1.28-.6-3.17-2.49-3.26-2.97-.14-.95 3.01-2.63 4.13-2.13-1.69.42-3.62-.2-5.28-.32-.35-.62-.72-.9-1.1-.64-1.33-1.09-2.68-.48-4.16.73-1.08 1.73-1.6 3.05-1.37 1.81 1.85 4.23.41 6.25 1.12 2.3 1.32 2.79 4 4.4 5.85.25.39.46.81.64 1.24.85 2.47 2.06 4.82 2.55 7.41 1.2 2.99 1.74 6 .11 9-1.03 1.89-2.1 3.84-4.85 2.97-2.02-2.33-2.22-5.37-3.12-8.21-1.17.85-.53 2.09-.86 3.08z"/><path fill="#b5d5d2" d="M126.26 74.77c-.66-2.29-.22-4.66-.68-7.04-.95-5-3.24-5.95-7.49-4.02-4.36-1.33-8.22 1-12.3 1.7-.5.08-.99.02-1.47-.16-1.84-1.19-1.34-2.76-.68-4.34.7-1.67 1.19-3.4 1.72-5.13.92-2.07 2.89-3.11 4.47-4.54 4.98-3.7 8.37-2.51 10.45 3.65-.46 1.06-2.15.89-2.3 2.46 2.52 1.41 4.85-1.1 7.31-.49.32.34.63.68.94 1.02.95 2.63 3.21 4.41 4.12 7.22 1.08 3.35 1.06 6.08-1.09 8.8-.75 1.13-1.93.8-3 .87z"/><path fill="#9fbebb" d="M91.08 123.77c4.96-2.91 5.61-5.29 3.32-12.23.38-.58.71-1.22 1.58-1.03 2.74 5.22 7.87 3.6 12.21 4.26l.09 1.91c.94 1.89.17 3.9.42 5.83 1.04 8.3-6.07 13.22-13.47 8.26-2.42-1.71-3.12-4.45-4.15-7z"/><path fill="#91beba" d="M129.29 95.86c1.08 3.41 4.38 5.29 5.85 8.44 1.15 2.48 2.19 5.14 0 7.38-1.89 1.94-4.38 2.94-7.11 1.19.53-2.53-2.25-3.85-2.28-6.19.58-7.76-1.47-10.45-9.12-11.85-3.81-.69-6.93-3.1-10.61-4.09-1.9-.51-3.61-1.71-5.7-1.47-1.02-.11-1.82-.55-2.29-1.5-.07-1.54 1.04-2.04 2.19-2.52.47-.1.95-.12 1.42-.07 6.07 2.18 12.71 2.29 18.61 5.14 1.45.7 3.3-.4 4.82.6 1.04.55 1.89 1.37 2.78 2.11.69.86 2.13 1.31 1.44 2.83z"/><path fill="#b4d1ce" d="M108.19 114.78c-3.77 2.95-10.92.65-12.79-4.1-1.38-2.18-1.68-4.84-3.14-6.98l.04.06c-.51-.54-.65-1.2-.66-1.91 1.56-2.43 4.41-2.76 6.64-4.1 4.18 5.16 8.15 10.44 9.91 17.03z"/><path fill="#73ada7" d="M129.29 95.86c-.71-.7-1.43-1.4-2.14-2.09 1.57-6.23 1.58-6.26 7.54-5.56 1.2.14 2.21-.81 3.4-.39 3.52 2.62 6.39 5.61 4.21 10.4-1.87 4.11-5.26 4.37-8.35 1.1-1.32-1.38-2.38-3.3-4.66-3.46z"/><path fill="#8ab9b4" d="M95.23 130.78c1.62-1.29 2.65.52 3.98.78 4.2.83 7.98-1.91 8.02-6.17.03-2.96.14-5.87 1.05-8.71 2.5 3.43 3.44 7.44 3.98 11.5.48 3.65-.39 7.08-3.96 8.93-3.67 1.91-6.74.13-9.44-2.29-1.35-1.19-2.43-2.68-3.63-4.04z"/><path fill="#80b6b0" d="M138.08 87.82c-1.19.73-1.49 3.56-3.64 1.93-3.41-2.58-5.04-1.78-5.66 2.3-.1.64-1.07 1.15-1.63 1.72l-1.93-1.96c-1.78-4.92-5.06-8.36-10.03-10.12-1.58-.43-3.02-1.24-4.63-1.6-2.19-.85-4.94-.42-6.46-2.81l.33-.66c1.31 0 2.63.01 3.94.01 10.44 2.31 20.93 4.46 29.71 11.19z"/><path fill="#4f978f" d="M125.23 111.93c-10-2.83-17.45-9.94-25.87-15.42-1.06-.38-1.72-.93-.86-2.1 1.73-.72 3.33.09 4.97.42 3.37 1.72 7.1 2.66 10.33 4.71 3.18 1.52 6.67 2.53 9.08 5.36.46.56.85 1.16 1.23 1.78.7 1.67 2.63 3.1 1.12 5.25z"/><path fill="#84b7b2" d="M125.25 57.77c-.02-.31 0-.61.05-.91 4.41-.7 8.87-2.31 13.04.84-.75 1.03-1.31 2.33-2.29 3.05-2.48 1.83-1.9 3.44-.09 5.27 1.31 1.33 2.31 2.84 1.29 4.84-.42.79-1.15.93-1.94.97-1.39.53-1.89-.56-2.03-1.44-.87-5.39-4.27-9.11-8.03-12.62z"/><path fill="#a1c8c4" d="M125.25 57.77c4.96 2.29 8.16 5.9 8.78 11.52.1.94.27 1.98 1.27 2.53-1.76 1.4-3.9 1.73-6.02 2.09 1.06-4.99 1.41-9.76-3.38-13.35-.59-.43-.45-1.83-.65-2.79z"/><path fill="#94bfba" d="M98.22 94.73c.38.59.76 1.19 1.14 1.78-.36.41-.72.82-1.08 1.22-1.09 2.7-3.53 3.37-6 4-2.99-1.43-3.5-4.64-5.02-7.1-.5-.82-.01-2.61.93-2.15 3.22 1.58 7.03.12 10.03 2.25z"/><path fill="#71aba5" d="M125.23 111.93c.29-2.09-2.09-3.13-2.01-5.14.99-1.77 1.99-1.83 2.99-.01 1.05 1.2 2.15 2.37 3.14 3.62 1.37 1.73.08 2.16-1.31 2.49-.99-.21-2.13.1-2.81-.96z"/><path fill="#bcd9d6" d="M108.22 42.75l-3.71 4.97c.13.15.27.29.4.44 1.45-1.13 2.9-2.26 4.35-3.38 4.85 2.65 4.93 4.02.4 7.1-3.24 2.43-5.76 6.02-10.25 6.48-2.2-.43-2.25-2.53-3.14-3.99-.82-1.22-2.34-.72-3.4-1.36-3.59-2.41-4.17-5.65-2.62-9.48 3.32-10.11 7.89-19.48 16.05-26.68.67.29 1.25.68 1.41 1.46-.98 8.17-1.05 16.32.51 24.44z"/><path fill="#8bbcb7" d="M115.37 38.97c4.1-4.09 9.27-5.64 14.84-6.15 3.49-.32 6.07 1.19 7.55 4.36 1.48 3.16.54 6.06-1.94 8.05-4.5 3.61-9 7.34-14.53 9.4-1.28-5.48-4.46-10.24-5.92-15.66z"/><path fill="#9cc5c0" d="M108.22 42.75c-4.2-8.14-2.84-16.51-1-24.89 3.43-.15 4.5 2.03 4.63 4.9.17 3.79.96 7.43 2.27 10.97-1.97 3-3.94 6.01-5.9 9.02z"/><path fill="#9cc6c2" d="M115.37 38.97c3.3 4.72 6.85 9.34 5.91 15.66-.33.08-.66.17-.99.26-.5-.62-.97-1.26-1.5-1.85-2.36-2.63-4.89-4.29-8.15-1.29-.48.45-.94.44-1.4-.04 4.63-2.31 1.85-4.63.01-6.95 2.18-1.78 3.47-4.49 6.12-5.79z"/><path fill="#b2cac7" d="M77.3 40.8c3.93-3.92 6.51-9.62 13.16-9.97-.63 4.42-.71 8.97-3.09 12.97-2.51.86-7.33-.58-10.07-3z"/><path fill="#67a49e" d="M108.09 15.79c3.42-3.18 7.46-3.43 10.75-.61 4.35 3.72 1.21 7.77-.74 11.53-2.67-.84-4.5-2.75-5.48-5.19-.97-2.44-2.68-4.1-4.53-5.73z"/><path fill="#82b6b0" d="M108.09 15.79c1.71-.05 3.6.07 4.05 1.98.89 3.79 3.86 6.04 5.96 8.94-.44 2.84-2.94 4.52-3.98 7.02-3.84-2.08-3.63-6.42-3.46-9.35.2-3.52-.98-5.04-3.44-6.52-.31-.33-.61-.67-.92-1 .6-.36 1.19-.72 1.79-1.07z"/><path fill="#97bbb7" d="M77.3 40.8l10.07 3c-.06 1.11-.03 2.25-1.06 3.01-3.44.33-6.96-1.79-10.43.96-1.14.91-2.8-1.2-3.72-2.64-1.15-2.86-2.08-5.71.28-8.44 2.51.32 1.67 4.6 4.86 4.11z"/><path fill="#76a29d" d="M73.37 45.72c1.04.29 2.17 2.29 2.78 1.3 3.44-5.6 6.79-.92 10.17-.2-.38 1.61-.75 3.22-1.13 4.83-.48.95-.15 2.57-1.99 2.37-1.62-2.65-3.35-4.82-7.1-4.35-1.8.22-3.51-.98-3.17-3.42.14-.19.29-.36.44-.53z"/><path fill="#9bc2be" d="M90.25 43.53c-.22 3.84.34 7.32 4.17 9.35.16 2.14-1.13 3.03-2.98 3.43-2.59-.92-3.48-3.4-4.91-5.39 1.25-2.46 2.49-4.93 3.72-7.39z"/><path fill="#78ada7" d="M86.55 50.92c2.58.61 3.53 2.81 4.67 4.82.7 1.65-.55 2.2-1.6 2.87-1.98.74-3.9 1.03-5.55-.75-.54-2.2.42-3.82 2.03-5.19.14-.58.29-1.16.45-1.75z"/><path fill="#e4ebeb" d="M86.09 52.68c-.55 1.71-1.1 3.43-1.64 5.14.21.55.07.98-.43 1.3-2.31.32-2.54-1.12-2.43-2.87.31-1.04.85-1.88 1.96-2.19.55-.8 1.09-1.61 1.64-2.41.3.34.6.68.9 1.03z"/><path fill="#448c84" d="M53.25 83.71c-1.5-2.49-4.01-4.32-4.87-7.21-.68-2.29-2.5-1.62-4.03-1.76 2.02-2.75-.88-2.81-2.08-3.8 5.36-1.85 10.88-1.07 16.35-.97.76.33 1.22.91 1.43 1.7-.33 2.4.97 4.39 1.66 6.55-1.63 3.68-4.19 5.9-8.46 5.49z"/><path fill="#88b8b3" d="M31.16 68.59c.11-2.08-4.07-.86-2.89-3.75 4.38-1.87 8.78 1.61 13.16-.07-.83 1.99 3.24 1.63 1.85 3.88-1.93 1.64-3.91 1.4-5.92.16-2.07-.08-4.13-.15-6.2-.22z"/><path fill="#2a6962" d="M37.36 68.8c1.97-.05 3.95-.1 5.92-.16 2.67.35 5.35.71 8.02 1.06 2.73-1.75 5.59-1.39 8.48-.53.99.83.92 1.38-.43 1.58-5.7.06-11.4.13-17.1.19-1.36-1.3-4.83 2.19-4.89-2.14z"/><path fill="#8dbbb6" d="M68.32 94.75c.11 1.75-.04 3.45-1.03 4.97-1.68-1.13-2.77.22-3.9 1.02-2.24 1.58-4.81 3.26-7.02.8-2.1-2.34 1.29-3.85 1.96-5.82.58-.43 1.25-.67 1.92-.9 2.69.25 5.38-1.16 8.07-.07z"/><path fill="#4b857f" d="M52.25 89.69c.03-.32.08-.64.16-.95 2.31-.77 1.1-2.39.9-3.76 3.04-2.21 6.43-3.8 9.76-5.48 1.08-.24 1.85.22 2.47 1.07.49 2.45-1.14 3.95-2.5 5.58-1.39 1.52-2.95 2.81-4.89 3.59-1.99-1.39-3.22.55-4.77 1.09-1.05.3-1.33-.18-1.13-1.14z"/><path fill="#609791" d="M60.32 95.75c-.66-.01-1.32-.03-1.98-.04.48-1.9 3.86-3.23 1.12-5.75.44-1.99 2.52-2.44 3.6-3.82.93-.8 1.92-1.26 3.14-.67 1.18 2.26-1.71 3.52-1.36 5.58-.53 2.51-2.63 3.5-4.52 4.7z"/><path fill="#619791" d="M52.25 89.69c.38.38.76.75 1.14 1.13-1.91.84-2.98 4.13-5.89 2.01.31-.35.62-.69.92-1.04 1.28-.7 2.56-1.4 3.83-2.1z"/><path fill="#dbe5e4" d="M63.4 86.82c-1.32 1.04-2.63 2.09-3.95 3.13-.43-.08-.86-.15-1.29-.23l4.1-4.04c.98-.22 1.38.14 1.14 1.14z"/><path fill="#639b95" d="M75.23 103.67c-2.2.11-1.84-1.56-2.01-2.87-1.31-2.03-1.91-4.43-3.34-6.4-.43-3.71-.19-7.04 4.48-7.82 2.11 2.32-.05 4.66.36 6.91.94-.43-.67-2.74 1.04-2.62 2.01.13 2.32 2 2.57 3.68.02.78-.12 1.53-.42 2.25-1.62 2-.91 4.92-2.68 6.87z"/><path fill="#66a29b" d="M60.32 95.75l4-4.93c.81-2.3 2.02-4.29 4.31-5.43 1.11.1 1.87.69 2.3 1.71.27 2.39-.64 4.47-1.72 6.51-.3.38-.59.76-.89 1.14-2.54 1.35-5.27 1.2-8 1z"/><path fill="#8dbbb6" d="M70.19 94.72c4.04.51 2.98 3.57 3.03 6.07-5.3.48-3.57-3.51-3.92-6.17.35-.4.64-.34.89.1z"/><path fill="#91bdb8" d="M75.23 103.67c.78-2.25-1.59-5.43 2.02-6.85 2.39.78 1.08 3.85 3.04 4.9.01.37.01.73.02 1.1-1.77-.15-3.49-.01-5.08.85z"/><path fill="#dde5e4" d="M70.19 94.72c-.3 0-.59-.03-.89-.1l-.09-1.01c.15-2.28 1.6-4.37.94-6.76-.32-1.43.72-1.69 1.71-1.98.78-.09 1.52.05 2.2.47.44.39.49.83.14 1.31-3.16 1.78-3.5 4.97-4.01 8.07z"/><path fill="#2b645e" d="M32.32 83.57l5.97-1.95c1.24.21 1.94.67.9 1.94-2.28.36-4.57.72-6.85 1.06-.09.01-.32-.2-.31-.27.06-.27.19-.52.29-.78z"/><path fill="#ccd6d5" d="M63.39 79.82c-2.47 3.45-6.96 2.96-10.08 5.16l-.06-1.27c3.08-1.43 6.16-2.86 8.01-5.93.38-.29.8-.35 1.26-.23.77.57 1.37 1.21.87 2.27z"/><path fill="#adcecb" d="M51.26 43.81c2.32.28 4.82.73 3.07-3.06 3.81.18 4.67-1.67 3.24-5.5 3.94 5.87 8.31 3.86 12.71 1.54 2.05 1.7 1.36 4.07 1.52 6.23.01 1.44-.59 2.97-1.93 3.07-5.12.37-7.29 2.91-6.59 7.96-5.05.27-6.58-4.73-10.09-6.76-.47-1.25-2.46-1.67-1.93-3.48z"/><path fill="#79a29e" d="M71.27 43.78c.28-2.42-.35-4.7-.99-6.99-.05-3.11.6-6.08 2.16-8.97v8.87c-.39 3.08-.14 6.09.93 9.02l-.09.11c-.36.32-.77.38-1.21.2-.7-.59-1.34-1.21-.8-2.24z"/><path fill="#689892" d="M53.58 46.76c3.95 1.21 5.38 5.96 9.58 6.81.52-.24 1.02-.2 1.49.12 1.01.97 1.48 2.2 1.75 3.54.46 3.54.04 6.54-4.38 7.03-.78.07-1.48-.09-2-.73-.93-1.75-.7-3.93-2.05-5.54C54.42 54.26 50.81 50.6 46 47.3c2.77-.59 3.59 1.53 5.22 1.61 2.77.69 3.99 3.25 5.71 4.51-1.21-1.73-3.73-3.02-4.61-5.63-.08-.29-.13-.58-.15-.88.42-.6.89-.65 1.41-.15z"/><path fill="#5b8a85" d="M50.26 61.79c-2.15.31-4.01-1.47-6.2-.84-3.99-.63-7.92-1.41-11.41-3.63 6.36.72 12.72 1.19 18.77 3.33-.13.66-.77.76-1.16 1.14z"/><path fill="#a0c4c0" d="M52.33 47.79c3.21 2.15 5.57 5.06 7.66 8.26-3.9-1.28-6.23-4.33-8.76-7.14.36-.38.73-.75 1.1-1.12z"/><path fill="#456f6b" d="M53.58 46.76l-1.4.15c-2.13-1.8-4.26-3.59-7.03-5.92 3.43-.5 4.3 2.11 6.11 2.83.78.97 1.55 1.96 2.32 2.94z"/><path fill="#82afaa" d="M57.98 57.99c1.68 1.2 3.36 2.4 2.35 4.89-.39.34-.84.54-1.36.61-.98-.19-2.13-.23-1.65-1.78-1.38-1.52.46-2.47.66-3.72z"/><path fill="#1e544e" d="M57.32 61.72c.33.86 1.08 1.05 1.88 1.16.18 1.87-.9 1.35-1.9 1.01-2.35-.7-4.7-1.4-7.05-2.09l1.16-1.13c1.98.35 3.95.7 5.91 1.05z"/><path fill="#498c85" d="M57.31 63.89c.73-.16 1.59-.06 1.9-1.01h1.12l1.04.89c1.72.71 1.94 2.07 1.61 3.68-.49 1.21-1.31 2.07-2.64 2.35l-9.03-.09c1.19-1.98 2.66-3.4 5.24-2.76 1.17.29 2.68 1.66 3.4-.19.87-2.22-2.04-1.62-2.64-2.87z"/><path fill="#7cafaa" d="M104.28 64.72c.34.03.68.07 1.02.1.34.35.94.43 1.05 1.01-5.11 2.8-3.27 6.84-1.92 10.79-.13.13-.26.26-.4.39-.41.24-.86.38-1.34.4-6.55-1.09-6.69-1.09-6.51-7.8.04-1.5-.92-2.03-1.44-2.85-1.65-2.64-1.52-4.62 1.3-6.19.45-.14.91-.13 1.37 0 1.55 2.6 3.15 5.13 6.87 4.15z"/><path fill="#709c97" d="M106.35 65.83c-.35-.34-.7-.68-1.05-1.01 4.26-.37 8.27-3.69 12.79-1.11-3.91.71-7.83 1.41-11.74 2.12z"/><path fill="#50948d" d="M80.29 101.72c-3.15-.31-1.48-3.6-3.03-4.9.04-.74.07-1.48.11-2.22 1.22-2.97-2.59-5.54-.69-8.57.96-1.5 2.42-2.32 4.03-2.93 1.61-.47 2.95.44 4.4.82 1.25.03 2.37-.82 3.65-.61 3.39 1.07 7.17 1.27 9.67 4.32.65.32 1.3.63 1.95.95 1.55.01 2.93.3 3.43 2.06-.02.48-.17.92-.46 1.31-2.11 1.05-3.69-.45-5.47-1.1-1.43-.52-2.71-2.04-4.45-.76-1.58 3.47-5.49.85-7.59 2.94-1.59-1.12-1.34 1.67-2.61 1.23-2.92-.48-2.95 1.96-3.71 3.66.25 1.27.51 2.54.77 3.8z"/><path fill="#73a9a4" d="M85.29 92.74c1.18-.93 1.93-2.52 4.05-1.58 2.2.98 2.73-.81 3.07-2.5 4.26 1.35 8.81 2.26 10.9 6.99-1.7-.31-3.4-.61-5.1-.92-6.75.29-6.75.29-10.66-2.01 1.5 3.63 2.62 6.54 4.72 9.01.01.67.01 1.35.02 2.02-2.44-1.27-2.59-4.06-4.02-6-1.92-1.12-3.35-2.52-2.98-5.01z"/><path fill="#92bdb9" d="M85.29 92.74c1 1.67 1.99 3.34 2.99 5-2.07.08-4.48 2.5-6.06-.87-.1-1.2.06-2.3 1.1-3.09.86.04.62-1.99 1.97-1.04z"/><path fill="#75a6a1" d="M83.32 93.79c-.02 1.15.06 2.34-1.1 3.09-1.1-.16-1.91.44-2.7 1.05.43-2.15-2.13-7.05 3.8-4.14z"/><path fill="#719995" d="M92.26 103.69c2.58 1.64 2.69 4.39 3.14 6.98-.33.29-.67.58-1 .87-.05-2.79-2.41-4.96-2.14-7.85z"/><path fill="#a6cac6" d="M104.28 64.72c-5.19 2.67-5.19 2.67-6.9-3.83 2.17-3.09 5.31-4.48 8.92-5.04.37 3.19-2.83 5.58-2.02 8.87z"/><path fill="#5f8c87" d="M106.29 55.85c-2.97 1.68-5.95 3.36-8.92 5.04-.36-.04-.73-.09-1.1-.13-.1-.19-.21-.38-.32-.56.03-.44.18-.83.46-1.18.73-.99 1.98-.67 2.91-1.16 3.3-2.04 6.6-4.09 9.91-6.13l1.39.03c-1.43 1.36-2.88 2.73-4.33 4.09z"/><path fill="#70aaa3" d="M115.27 80.74c5.32.61 10.99 6.92 9.94 11.07-8.2-1.15-16.16-3.28-24.02-5.82.06-.75 1.78-.87.75-2.04 1.29-4.08 3.67-4.2 6.74-1.88 2.53 1.92 5.2 3.48 8.63 3.58.4.34 0-.81-.12-.15-2.31-.91-2.52-2.67-1.92-4.76z"/><path fill="#a3c9c5" d="M103.34 90.64c-.99-.68-1.97-1.37-2.96-2.05 4.57-.99 8.02 2.12 11.93 3.45 2.15.73 4.1 1.62 6.48 1.8 6.17.47 9.73 6.93 7.42 12.94-1-.66-2-.64-2.99.01-.29-.37-.59-.74-.88-1.11.78-3.27 1.26-6.2-3.88-4.76-1.11.31-2.16-.61-3-1.43-2.35-2.35-5.35-3.73-8.16-5.4-1.55-.93-3.27-1.58-3.96-3.45z"/><path fill="#70a8a2" d="M98.43 87.63c-3.37-1.31-6.73-2.63-10.1-3.94-.32-.58-.22-1.06.32-1.45 4.97-1.16 9.35.2 11.63 3.61-.62.6-1.23 1.19-1.85 1.78z"/><path fill="#36756e" d="M100.28 85.86c-3.76-1.96-7.67-3.28-11.99-2.88-1.14-3.2 1.28-3.47 3.15-3.23 4.07.52 8.12 1.41 10.9 4.92.86 1.52-.68.95-1.15 1.32-.29-.1-.6-.14-.91-.13z"/><path fill="#589b94" d="M102.34 84.67c-3.2-1.21-6.36-2.56-9.63-3.58-1.78-.56-4.05-1.3-4.42 1.88.03.24.04.48.04.72-1.09.64-2.17 1.28-3.26 1.92-1.2-2.21-.6-4.22.81-6.03 1.09-1.4 1.9-2.74.92-4.52-.13-.45-.17-.91-.14-1.37.1-.46.33-.85.67-1.18 1.73.1 3.13-.92 4.61-1.44-1.29.04-2.38 1.59-3.91.76-.5-.95-.24-1.81.32-2.63 1.72-2.22 2.99-4.7 4.26-7.19.97-1.2 1.92-2.45 3.69-1.23l-.02-.02c-.73 1.77-3.8 3.43-.26 5.4l.59 4.84c-.45 5.19 4.2 4.46 6.92 5.97 2.21 1.79 4.72 2.4 7.5 1.94 1.41.61 2.83 1.22 4.24 1.83.73 1.79 1.47 3.58 2.33 5.69-3.68 1.11-6.55-.75-8.77-2.84-3.05-2.88-4.85-2.46-6.49 1.08z"/><path fill="#1d504b" d="M111.03 78.91c-2.98 1.21-5.56.88-7.5-1.94.17.02.33.03.5.04 2.33.63 4.66 1.27 7 1.9z"/><path fill="#92beb9" d="M103.31 95.65c-3.2-3.01-7.31-4.59-10.9-6.99 2.29-2.06 3.75.41 5.52 1.05 1.81.65 3.55 1.48 5.32 2.23 3.99 1.75 7.95 3.55 11.36 6.35.04 1.05-.52 1.78-1.31 2.38-2.98-2.37-7.12-2.41-9.99-5.02z"/><path fill="#b6d6d3" d="M113.3 100.66c-.03-.88.23-1.62 1.04-2.08.71-.43 1.37-.42 1.93.26.79.91 1.76 1.79 2.9.89 1.78-1.41 3.53-1.47 4.56.45 1.05 1.96 1.03 4.17-1.4 5.5-2.57-2.46-5.81-3.71-9.03-5.02z"/><path fill="#346c66" d="M89.32 57.8c.63-.69 1.27-1.37 1.9-2.06 1.07-.95 2.14-1.91 3.21-2.86.96.22 1.83-2.36 2.85-.09-.98 1.68-2.04 3.29-3.52 4.59-1.41 1.38-2.81 2.77-4.14 4.23-1.77 1.09-2.22 4.52-5.42 3.11-1.15-4.42 3.03-4.89 5.12-6.92z"/><path fill="#9ac2be" d="M93.18 56.68l4.1-3.89c.4 1.81.64 3.67 2.06 5.06l-3 1.98c-2.93.84-3.32-.88-3.16-3.15z"/><path fill="#54918a" d="M72.38 45.83c.3-.03.6-.03.89-.01.2 1.93 1.35 3.38 3.18 2.86 4.97-1.4 6.74.92 7.1 5.37-.41.6-.82 1.2-1.23 1.79-2.05 2.26-5.69 1.24-7.62 3.73-.37.55-.76 1.07-1.23 1.53-.93.64-1.98.95-3.07 1.14-.45.02-.88-.07-1.28-.27-1.13-1.08-1.94-2.36-2.33-3.9-.03-2.43-1.81-4.43-1.73-6.89.56-.96 1.37-1.08 2.34-.74 1.22.59 1.51 2.96 3.27 2.2 1.94-.83.96-2.73.84-4.24-.08-.96-.01-1.9.87-2.57z"/><path fill="#619792" d="M89.32 57.8c-1.11 2.66-4.8 3.51-4.85 6.91-.21.1-.41.2-.62.29-1.58-.49-2-1.75-2.17-3.2 0-1.64 1.5-2.14 2.38-3.1.13-.29.26-.59.38-.88 1.63.46 3.25.35 4.88-.02z"/><path fill="#ccd7d6" d="M84.07 58.7l-1.94 2.99c-.27.38-.64.56-1.11.55-.67-.12-1.24-.46-1.81-.82-1.66-1.43-4.7.04-5.73-2.72 2.58-2.09 5.5-3.11 8.84-2.86-.01 1.32-.21 2.75 1.75 2.86z"/><path fill="#375854" d="M69.24 61.63c.33.07.66.08.99.05-.99 5.29-3.83 9.55-7.48 13.35-1.47-.27-2.49-1.21-3.39-2.32v-1.95c.32-.32.65-.64.97-.95l2.04-2.07c2.26-2.08 2.92-5.94 6.87-6.11z"/><path fill="#4f726f" d="M59.36 72.71c1.47.01 2.91.09 3.02 2.08.85 1.08.79 2.1-.18 3.08-.31-.07-.62-.1-.94-.09-1.84-1.24-3.09-2.7-1.9-5.07z"/><path fill="#2d3736" d="M62.21 77.86l.18-3.08c2.62-4.37 5.24-8.74 7.85-13.1.72-1.19 1.9-.8 2.95-.87.8 0 1.56.2 2.27.55 3.29 1.1 5.37 3.09 5.26 6.85-.04 1.51.79 2.83 1.42 4.19 1.92 4.16 1.3 6.76-2.8 8.47-3.13 1.31-5.66 4.24-9.48 3.83-2.17-.49-3.37-2.13-4.55-3.8-.64-.36-1.28-.72-1.93-1.09-.38-.64-.78-1.3-1.17-1.95z"/><path fill="#b9c3c2" d="M65.32 80.9c2.44-.51 2.46 2.17 3.91 2.97.84 1.01 3.07-.57 3.22 1.72-.87.22-1.82.31-2.29 1.26-.64-.33-1.29-.66-1.93-1-.61.42-1.22.51-1.83 0-1.22-.37-2.03.51-2.99.96-.38-.38-.76-.75-1.14-1.13 1.01-1.59 2.03-3.18 3.05-4.78z"/><path fill="#285c57" d="M66.39 85.86h1.83c-1.04 1.86-2.07 3.73-3.9 4.96-2.04-2.79 1.62-3.21 2.07-4.96z"/><path fill="#2a6862" d="M77.29 85.81c-1.06 2.94 2.38 5.84.07 8.79.01-1.22-.56-2.16-1.71-3.53-.28 1.55-.47 2.65-.67 3.76l-.77-.09v-8.09c.15-.27.23-.57.24-.88.96-.84 1.9-.85 2.84.04z"/><path fill="#757777" d="M77.29 85.81c-.95-.01-1.89-.02-2.84-.04l-2-.18c-1.07-.58-2.14-1.15-3.22-1.72 4.46-.49 7.82-3.47 11.67-5.3 1.01-.48 1.93-2.2 1.26-2.96-3.63-4.07-1.01-11.68-7.9-13.81 1.75-1.78 3.71-2.11 5.89-.83.31.33.61.66.92.99.96 2.64 3.84 3.79 4.96 6.31.65 1.67.33 3.55 1.12 5.19l.12 1.14c-.22 4.09-3.13 6.48-5.75 9.05-1.51.5-2.41 2.23-4.23 2.16z"/><path fill="#95beb9" d="M67.25 50.86c-.8-.07-1.54.01-1.88.9.52 1.13-.15 1.61-1.06 1.96l-1.14-.15c-.13-.63-.1-1.35-.4-1.88-2.89-5.07 1.12-5.52 4.29-6.17 1.58-.32 3.19-.19 4.2-1.74.37.68.74 1.37 1.11 2.06-.02.99-.03 1.97-.05 2.96-1.44 1.29-2.04 4.65-5.07 2.06z"/><path fill="#dae3e2" d="M69.24 61.63c-3.36.83-2.9 5.97-6.87 6.1-.13-1.37.26-2.88-1.01-3.96 4.25-.78 4.55-3.7 3.87-7.15 1.13-.39 1.61.3 1.97 1.19.27 1.49 2.28 2.06 2.04 3.82z"/><path fill="#71a59f" d="M67.21 57.8c-.66-.4-1.32-.79-1.97-1.19-.31-.96-.62-1.93-.93-2.89.35-.65.7-1.31 1.06-1.96 1.45 1.76 2.62 3.6 1.84 6.04z"/><path fill="#f4f7f6" d="M81.53 83.64c1.22-3.46 3.58-6.19 5.75-9.05 2.91 1.09 1.85 3.09.59 4.4-1.86 1.93-2.61 4.1-2.8 6.62-1.16-.7-2.02-1.93-3.54-1.97z"/><path fill="#6d9b96" d="M116.28 98.84c-.64-.09-1.29-.17-1.93-.26-3.32-2.85-8.09-3.27-11.1-6.64l.09-1.3c4.41 2.58 9.34 4.33 12.94 8.2z"/><path fill="#77aba5" d="M93.18 56.68c.79 1.32 1.16 3.04 3.15 3.16-.02.31-.04.62-.04.94-1.45 0-2.46.67-3.01 2.02-2.25 1.12-3.1-.47-3.97-2.03.93-1.71 2.28-3.02 3.87-4.09z"/><path fill="#488882" d="M89.32 60.76c1.32.68 2.64 1.36 3.97 2.03-.91 2.64-2.1 5.11-4.34 6.92-.99-.29-2.2.09-2.95-.95-.01-1.6-2.15-2.24-1.82-3.99l.3-.07c2.46-.26 2.56-3.44 4.84-3.94z"/><path fill="#367972" d="M88.05 71.56c2.36-.33 4.19-2.46 7.96-2.4-3.26 2.34-5.25 4.53-8.59 3.56-.49-.76-.03-1.01.63-1.16z"/><path fill="#d3dada" d="M88.05 71.56c-.21.39-.42.77-.63 1.16-.2.21-.28.46-.25.74-2.43-.85-1.82-2.85-1.75-4.64.24-.6.6-.69 1.09-.25.84.34 2.07-.17 2.44 1.15-.3.61-.6 1.23-.9 1.84z"/><path fill="#71a59f" d="M67.25 50.86c2.53 1.35 2.81-2.8 5.08-2.07 1.9 2.35 1 4.69-1.16 5.63-2.82 1.22-3.32-1.54-3.92-3.56z"/><path fill="#a8b5b4" d="M80.16 60.98c-2.09-.62-3.92.63-5.89.83l-1.08-.99c.1-.7.19-1.4.29-2.1 1.89 1.74 5.2-.71 6.68 2.26z"/><path fill="#acb7b6" d="M86.5 68.56c-.36.08-.73.17-1.09.25-1.16-2.46-5.04-3.21-4.33-6.85l1.05-.27c.68 1.03 1.36 2.06 2.04 3.08 1.17 1.03 2.45 1.98 2.33 3.79z"/><path fill="#0f1716" d="M71.19 79.45c-4.66-3.78-5-8.55-.77-12.04 1.03-.85 3.47-2.3 3.71-.84.48 2.92-.45 6.08-.8 9.13-3.97-.45-.1 2.91-2.14 3.75z"/></svg>