<svg xmlns="http://www.w3.org/2000/svg" viewBox="0 0 1831.93 540"><path fill="#fff" d="M2174.12-1628c-30.71-.5-47.75 26.21-40.83 58.15 17.93-6.94 39.02-36.96 40.83-58.15z"/><path fill="#2e4560" d="M2125.7-1656.85v-4.57c3.45-.45 6.73-.82 9.99-1.3 4.04-.6 6.06-2.8 6.04-7.11-.07-28.99-.06-57.99.01-86.99.01-3.61-1.71-5.62-4.94-6.54-2.07-.59-4.21-1.24-6.34-1.31-4.38-.15-6.11-1.92-4.45-6.72 3.44.23 7.03.66 10.63.68 19.15.11 38.3-.03 57.45.19 15.13.18 29.16 4.12 40.13 15.06 17.07 17.01 19.42 37.86 12.89 59.75-6.46 21.64-22.26 33.65-44.15 37.93-2.28.45-4.62.89-6.93.9-23.28.06-46.58.03-70.33.03zm38.22-4.94c5.56 0 10.56.23 15.53-.04 23.29-1.27 40.02-14.68 44.74-37.08 1.79-8.49 1.92-17.53 1.43-26.24-.84-14.82-7.08-27.01-20.93-34.01-12.88-6.51-26.72-6.7-40.76-6.26-.01 34.89-.01 68.98-.01 103.63z"/><path fill="#66bcb3" d="M2042.55-1663.44c7.66-18.6 40.01-41.04 58.34-40.74.26 26.61-21.33 47.44-58.34 40.74zm132.05-137.81c-26.6.07-48.47-20.63-41.38-59.05 22.28 13.9 35.98 33.21 41.38 59.05zm-73.68 73.55c-25.66-5.35-44.95-18.94-58.72-40.89 29.52-9.29 61.69 12.95 58.72 40.89zm73.2 99.7c-1.81 21.19-22.89 51.21-40.83 58.15-6.92-31.94 10.12-58.65 40.83-58.15zm64.9 58.17c-17.79-6.34-40.28-38.38-41.04-58.09 25.76-5.01 45.63 22.89 41.04 58.09zm-.1-289.62c6.7 38.12-15.38 58.33-40.71 58.12-.93-17.64 22.97-52 40.71-58.12zm35.44 155.36c17.31-1.21 48.64 20.22 58.59 40.05-25.92 11.57-59.27-11.22-58.59-40.05zm58.76-65.15c-8.66 19.39-40.49 41.37-58.79 40.85.37-22.79 16.82-47.79 58.79-40.85z"/><path fill="#2e4560" d="M2111.63-1860.42c-6.83 17.97-6.12 36.38-2.92 55.06-18.91-8.03-26.84-27.3-19.48-43.6 3.86-8.56 12.81-13.15 22.4-11.46zm-2.94 234.37c-3.2 18.56-3.87 36.99 2.96 54.99-11.34 1.69-20.92-4.49-23.84-15.27-3.4-12.57-.1-23.36 9.28-32.21 3.21-3.03 6.97-5.48 10.47-8.2.38.23.75.46 1.13.69zm156.14 55.46c7.1-18.68 6.49-36.97 3.15-55.51 20.8 8.58 27.52 30.42 18.1 46.01-4.58 7.59-12.04 9.87-21.25 9.5zm2.99-234.07c3.54-19.35 4.08-37.63-2.67-55.48 8.47-2.54 18.61 2.52 22.39 11.36 4.12 9.63 3.69 19.17-1.77 28.22-4.13 6.84-10.01 11.84-17.95 15.9zm-202.88 81.92c-6.08 0-13.63.82-20.94-.18-13.34-1.82-19.85-10.58-18.15-23.91.78-6.16 3.01-12.14 4.81-19.1 5.91 8.47 10.75 16.17 16.38 23.24 5.68 7.11 12.15 13.59 17.9 19.95zM2234.85-1871c-8.04 5.63-15.74 10.56-22.91 16.17-7.02 5.5-13.48 11.71-19.64 17.13-1.29-8.53-1.85-18.79 2.87-28.62 3.27-6.79 9.04-10.02 16.41-10.29 8.13-.3 15.62 2.17 23.27 5.61zm-97.17 312.23c7.46-5.23 15.16-10.16 22.31-15.77 7.03-5.51 13.5-11.72 19.67-17.13 1.5 7.92 1.69 17.67-2.17 27.13-3.16 7.73-9.25 12.15-17.48 11.58-7.61-.52-15.12-2.64-22.67-4.06.12-.59.23-1.17.34-1.75zm53.65-34.46c7.51 6.84 13.95 13.31 21.03 18.98 6.97 5.57 14.59 10.33 22.47 15.83-9.79 4.22-19.45 7.85-30.08 4.25-6.75-2.29-10.57-7.89-11.62-14.5-1.27-8.09-1.25-16.38-1.8-24.56zm-53.88-278.7c6.22-1.54 12.37-3.73 18.68-4.49 12.65-1.52 21.4 5.04 23.18 17.84 1.03 7.43.19 15.12.19 24-11.59-15.92-26.31-26.46-42.16-35.65.03-.57.07-1.14.11-1.7zm-70.93 162.98c-14.98 10.85-25.39 25.54-35.05 42.1-4.29-9.95-7.63-19.12-4.92-29.3 2.03-7.61 7.81-11.79 14.98-12.99 8.07-1.35 16.37-1.27 24.57-1.82.15.67.29 1.34.42 2.01zm241.74-14.19c15.87-11.45 26.26-26.19 35.43-42.02 4.71 6.87 7.45 19.81 5.72 27.44-1.68 7.37-6.7 11.7-13.63 13.87-8.73 2.73-17.59 2.64-27.52.71zm35.8 56.27c-9.49-16.29-19.94-31.21-35.84-42.67 10.75-1.72 20.42-2.17 29.81 1.68 7.51 3.08 11.5 8.74 11.81 16.93.32 8.37-2.07 16.05-5.78 24.06zm-9.98 28.32c-2.86 12.77-12.64 21.55-23.97 21.8-14.51.32-24.97-6.86-28.43-19.98 17.7 3.96 35.04 1.85 52.4-1.82zm-239.38-157.22c-8.88-.33-17.5-1.2-26.06-.83s-17.06 1.97-25.56 3.03c.91-9.98 11.54-20.42 21.63-21.11 15.52-1.06 27.21 6.47 29.99 18.91zm-51.75 157.75c8.66 1.1 17.32 2.75 26.03 3.13 8.54.37 17.13-.57 25.6-.92-1.89 11.23-13.05 19.19-27.28 19.07-11.75-.11-22.55-9.57-24.35-21.28zm238.92-156.82c2.36-11.57 12.44-19.46 24.99-19.87 13.75-.46 23.24 6.93 27.42 21.73-17.44-3.65-34.79-5.74-52.41-1.86zm306.35 416.91c0 4.13-.01 8.07 0 12.01.04 10.99-.3 22.01.27 32.97.53 10.28 5.43 15.64 15.31 18.49 1.44.42 3.1.48 4.27 1.27 1.32.89 2.21 2.42 3.29 3.67-1.34.69-2.63 1.57-4.05 1.99-1.07.31-2.31.01-3.48.01-18.48-.06-36.96-.01-55.44-.26-2.85-.04-7.98-1.15-8.12-2.25-.57-4.53 3.99-3.72 6.78-4.49 9.54-2.61 14.41-8.86 14.58-20.05.29-19.83.25-39.66.37-59.49.09-15.16.22-30.33.29-45.49.01-2.16-.12-4.33-.38-6.48-.91-7.47-4-10.9-11.39-12.55-2.59-.58-5.35-.55-7.84-1.37-1.48-.49-2.59-2.11-3.87-3.22 1.4-.85 2.73-2.26 4.21-2.44 2.95-.34 5.98.03 8.98.04 18.15.05 36.3-.1 54.45.2 6.78.11 13.71.52 20.29 2.02 38.51 8.73 39.98 47.36 25.09 67.12-4.46 5.92-10.13 10.93-15.57 16.7 12.63 17.59 25.42 35.78 38.65 53.66 5.54 7.48 13.05 12.26 22.88 12.53 1.26.03 2.47 1.53 3.71 2.35-1.1 1.09-2.14 3.03-3.31 3.12-4.96.36-9.95.16-14.94.16-4.47.01-9.04-.57-13.41.14-9.29 1.5-16.28-1.46-21.52-9.16-10.11-14.87-20.29-29.71-30.45-44.54-1.79-2.61-3.65-5.17-5.52-7.72-5.86-8.09-14.13-9.74-24.13-8.94zm.37-5.49c8.63-1.02 16.94-1.31 24.89-3.13 8.42-1.93 14.33-7.79 17.1-16.08 4.5-13.5 3.96-26.97-2.11-39.87-5.8-12.33-18.48-18.4-31.96-15.92-4.6.85-7.83 3.4-7.86 8.28-.14 21.65-.06 43.29-.06 66.72zm-833.64 72.22h-39.48c-1.5 0-3.11.4-4.47-.02-1.88-.59-3.56-1.79-5.33-2.72 1.64-1.05 3.17-2.72 4.95-3.05 13.04-2.45 16.57-6.2 16.83-19.74.3-15.66.15-31.34.22-47.01.07-17.34.17-34.67.23-52.01.01-2.66-.07-5.34-.25-7.99-.7-10.32-4.73-14.78-14.79-17.27-2.44-.61-4.57-2.47-6.84-3.76 2.54-1.1 5.08-3.11 7.64-3.15 26.82-.33 53.67-1.06 80.47-.26 35.85 1.06 60.25 23.81 66.29 60.21 3.26 19.62 2.42 38.88-5.82 57.31-10.86 24.27-29.56 37.76-56.19 39.1-14.45.73-28.97.13-43.45.13-.01.08-.01.16-.01.23zm1.25-148.76c-.58 8.01-1.55 15.78-1.63 23.56-.29 25.99-.35 51.99-.3 77.99.02 9.48.08 19 1.02 28.42.78 7.82 2.48 9.13 10.16 9.54 8.29.43 16.65.7 24.93.18 19.12-1.2 32.37-11.07 38.25-29.26 8.99-27.82 8.01-55.47-4.18-82.3-4.83-10.63-12.41-18.85-23.38-23.58-14.28-6.15-29.16-5.71-44.87-4.55zm645 154.61c-9.34-1.28-18.92-1.66-27.98-4.01-24.46-6.34-40.63-22.26-48.37-46.11-8.13-25.06-6.11-49.83 6.07-73.15 13.15-25.18 34.88-38.3 62.89-40.76 29.53-2.59 55.94 4.75 75.13 28.58 20.87 25.9 22.11 55.49 11.02 85.5-10.6 28.68-33.01 43.69-62.64 48.64-.66.11-1.32.2-1.99.2-4.66.02-9.33.01-13.99.01-.04.36-.09.73-.14 1.1zm-53.65-86.25c1.01 8.75 1.55 17.59 3.13 26.24 2.59 14.14 7.84 27.25 18.18 37.67 8.87 8.94 19.3 14 32.46 13.67 11.19-.28 21.84-1.01 31.18-8.12 8.17-6.22 14.19-14 18.19-23.38 7.46-17.52 8.32-35.88 6.38-54.47-1.58-15.15-6.06-29.38-15.63-41.51-12.13-15.38-28.17-21.93-47.56-19.53-19.77 2.44-32.64 13.8-39.73 32.12-4.66 11.97-5.98 24.5-6.6 37.31zm-384.77-9.54c1.59.16 3.04.42 4.5.43 13.5.08 26.99.2 40.49.14 11.41-.05 14.02-2.26 17.22-13.24.86-2.95.79-7.9 5.21-7.16 4.46.74 3.25 5.46 3.26 8.84.02 10.98-.03 21.95-.05 32.93 0 1.33.38 2.78-.02 3.97-.58 1.7-1.71 3.21-2.61 4.81-1.39-1.17-3.31-2.07-4.06-3.57-1.18-2.33-1.52-5.08-2.3-7.62-1.74-5.67-5.59-9.54-11.43-9.67-16.59-.36-33.2-.12-50.17-.12-.06.91-.23 2.36-.24 3.81-.06 17.83-.14 35.66-.14 53.5 0 8.52 2.75 12.83 11.18 13.78 8.79.98 17.79 0 26.69.07 9.64.08 18.08-3.78 26.42-7.89 11.82-5.82 20.64-14.94 28.15-25.61 1.8-2.56 6.13-6.35 7.38-5.73 4.5 2.23 1.4 6.39.3 9.56-4.58 13.17-9.45 26.25-14.15 39.19-19.37 0-38.35-.06-57.33.02-22.49.09-44.98.3-67.47.44-2.49.01-5.03.08-7.46-.34-.98-.17-2.36-1.56-2.44-2.48-.08-.96.99-2.52 1.95-2.94 1.79-.78 3.85-1 5.81-1.3 10.22-1.59 13.82-5.51 14.04-15.97.2-9.5.12-19 .15-28.5.09-26.33.22-52.66.26-78.99.02-13.73-1.87-16-15.15-19.02-.65-.15-1.43-.14-1.92-.51-1.54-1.18-2.96-2.51-4.42-3.78 1.78-1.04 3.55-2.96 5.34-2.99 13.16-.22 26.32-.01 39.49-.05 26.32-.09 52.64-.17 78.96-.48 3.59-.04 4.82 1.06 5.63 4.44 2.8 11.65 6.1 23.17 8.9 34.81.5 2.07-.5 4.49-.81 6.75-2.11-1.21-5.03-1.9-6.2-3.72-10.69-16.67-25.15-28.29-44.88-31.31-11.6-1.77-23.58-1.14-35.39-1.37-.88-.02-2.58 1.69-2.59 2.6-.14 17.93-.1 35.91-.1 54.27zm300.18 63.81c-1.21 2.18-2.04 4.71-3.69 6.49-10.08 10.97-22.57 18.02-36.95 21.64-20.55 5.18-40.68 3.64-60.05-4.94-18.32-8.11-30.74-22.08-37.4-40.82-7.7-21.68-8.25-43.79-1.2-65.74 11.92-37.1 44.78-53.99 79.1-50 12.57 1.46 24.84 5.8 37.13 9.24 3.91 1.09 6.94 1.27 10.03-1.69 1.3-1.25 3.39-1.66 5.13-2.45.8 1.9 2.2 3.78 2.29 5.71.55 11.81.75 23.64 1.2 35.46.18 4.65.81 9.29.98 13.94.04 1.08-.97 2.21-1.49 3.31-1.1-.82-2.72-1.4-3.21-2.49-1.08-2.4-1.56-5.07-2.34-7.61-6.88-22.39-20.5-38.2-43.75-44.43-20.39-5.46-39.31 2.19-50.26 20.23-5.89 9.7-8.89 20.39-10.39 31.54-2.31 17.19-1.9 34.24 3.26 50.93 11.22 36.31 43.02 52.34 78.63 38.85 9.32-3.53 17.58-9.86 26.28-14.98 1.66-.97 3.1-2.32 4.64-3.49.7.45 1.38.87 2.06 1.3zm-282.81-155.61c2.71-11.71 5.07-22.19 7.65-32.63.21-.87 1.78-1.89 2.81-2 5.1-.56 10.23-.85 16.26-1.3-.78 2.46-1.06 4.39-1.95 5.97-5 8.82-9.8 17.78-15.47 26.16-1.49 2.2-5.82 2.47-9.3 3.8z"/><path fill="#66bcb3" d="M2479.38-1293.12c-17.32.09-34.65.21-51.97.29-10.12.04-20.25.01-30.67.01.56-1.52 1.07-2.89 1.57-4.26 4.55-12.43 9.15-24.84 13.64-37.29 1.55-4.29 2.15-8.68.92-13.22-.96-3.52-3.55-5.52-6.77-5.76-3.14-.23-2.8 3.26-3.42 5.23-5.41 17.05-10.75 34.12-15.85 51.26-1.04 3.5-2.66 4.53-6.21 4.54-21.65.02-43.31.26-64.96.49-1.97.02-3.96.32-5.91.69-1.28.24-2.74.65-2.85 2.31-.1 1.47.95 2.41 2.03 3.23 2.14 1.62 4.63 1.57 7.15 1.55 20.82-.17 41.64-.26 62.45-.51 3.46-.04 4.46.35 3.41 4.33-4.66 17.65-11.29 34.87-13.48 53.03-.94 7.77-4.51 12.79-9.77 17.52-9.44 8.48-19.14 16.63-31.74 20.02-11.83 3.18-21.59-1.74-25.24-13.38-4.54-14.49-2.29-28.24 6.64-40.7 1.76-2.46 4.05-4.41 6.94-5.52 2.18-.83 4.75-2.05 6.63-.47 2.14 1.8 1.26 4.62.35 6.97-.78 2.01-1.77 3.94-2.73 5.87-.93 1.85-1.96 4.03.04 5.41 2.14 1.48 3.69-.74 4.99-2.08 2.91-3 5.26-6.42 6.61-10.44 2.09-6.2-.59-11.39-6.95-13.04-6.61-1.71-12.13.8-16.94 5.05-8.43 7.44-12.86 17.18-15.51 27.86-.61 2.44-1.22 4.76-3.04 6.7-11.44 12.19-24.7 21.79-40.51 27.41-16.56 5.89-26.76-1.32-27.32-18.88-.03-.83.07-1.67-.03-2.49-.35-2.83.9-4.5 3.35-5.96 7.01-4.17 13.74-8.8 19.6-14.53 4.08-3.98 7.7-8.31 9.3-13.94 2.1-7.41-2.48-13.43-10.17-13.46-5.76-.02-10.17 2.82-13.96 6.77-7.4 7.71-12.84 16.79-15.05 27.14-1.71 8.02-6.18 13.25-12.28 17.88-5.31 4.03-10.67 7.96-16.49 11.2-6.55 3.64-13.32 6.78-20.87 7.83-9.51 1.32-14.65-3.54-13.95-13.12.46-6.4 2.09-12.57 5.07-18.11 2.8-5.21 1.42-9.13-1.79-13.16-5.63-7.07-10.47-14.56-12.93-23.39-.26-.94-.74-1.88-1.34-2.65-2.02-2.62-3.98-3.52-6.01.14-2.41 4.36-5.03 8.6-7.55 12.9-10.28 17.5-22.49 33.35-38.97 45.55-5.1 3.77-10.46 7.12-16.63 8.85-9.37 2.62-16.13-1.45-18.4-10.82-1-4.12-.88-8.22-.56-12.39.84-10.71 3.31-20.95 8.18-30.58 1.71-3.37.67-6.51-2.44-8.15-3.55-1.87-4.9 1.14-6.11 3.85-5.11 11.46-8.86 23.27-9.6 35.89-.1 1.79.04 3.54-1.59 5.01-8.49 7.64-17.53 14.31-28.84 17.16-8.79 2.21-16.43-.15-20.74-6.96-6.45-10.2-6.35-21.8-6.24-33.31.01-1.04.9-2.11 1.49-3.1 8.38-14.16 15.91-28.77 22.85-43.66 5.51-11.82 11.7-23.42 14.76-36.26.88-1.67.08-2.38-1.51-2.49-.2-.01-.4-.01-.59-.02.98-.1 1.96-.3 2.94-.56 2.29-7.84 1.54-15.87.91-23.76-.36-4.44-3.49-7.83-8.16-9.1-4.74-1.29-7.98 1.01-10.63 4.62-2.76 3.76-5.19 7.71-7.11 11.96-10.16 22.45-18.15 45.57-20.75 70.23-.43 4.03-1.97 5.44-5.92 6.14-24.28 4.27-46.03 26.83-49.3 50.71-.74 3.34-.15 6.73-.34 10.1.31 11.63 5.06 15.69 16.38 13.98 5.32-.81 9.65-3.65 13.45-7.17 6.71-6.23 13.18-12.7 18.55-20.18.97-1.35 1.77-2.98 3.66-4.02.19 4.32 1.08 8.05 2.2 11.7 3.63 11.81 11.64 20.41 26.35 19.75 13.16-.59 23.9-6.67 33.94-14.24 3.42-2.58 4.31-1.87 5.85 1.61 4.77 10.76 13.34 14.64 24.87 11.68 6.68-1.71 12.91-4.54 18.63-8.3 18.39-12.11 32.96-27.82 43.6-47.12.64-1.17 1.27-2.34 2.03-3.43 1.48-2.12 2.85-2.07 4.08.21 1.97 3.67 3.92 7.38 6.42 10.69 2.26 3 2.61 5.66 1 9.17-3.01 6.52-4.68 13.5-5.61 20.64-1.48 11.34 4.73 19.1 15.62 19.52h7.75c10.79.46 20.04-4.06 29.12-9.04 6.51-3.57 12.5-7.95 18.68-12.89 2.23 10.97 5.5 20.4 17.76 22.44h11.99c20.43-1.87 35.97-13.23 50.69-26.04-2.79 10.72 5.84 23.08 18.28 26.04h12.99c18.08-2.81 31.64-13.92 45.45-25.44.92 4.78 2.05 8.76 3.83 12.51 3.72 7.8 9.42 12.71 18.57 12.42h8.01c6.11.18 11.8-1.12 17.28-3.98 10.31-5.37 19.36-12.32 27.36-20.68 2.3-2.4 4.39-5.01 6.31-7.73 1.3-1.85 1.19-3.78-.5-5.42-1.82-1.76-3.62-1.18-5.37.16a21.38 21.38 0 0 0-3.56 3.49c-6.26 7.72-14.02 13.7-22.21 19.17a45.116 45.116 0 0 1-15.56 6.59c-8.8 1.9-16.31-1.96-20.08-10.08a33.19 33.19 0 0 1-3.03-12.05c-1.41-22.99 4.07-44.56 13.66-65.27 1.47-3.18 3.78-4.26 7.14-4.24 5.67.03 11.33.86 16.93.82 22.98-.2 45.92 1.76 68.89 1.21 2.53-.06 5.04-.13 6.81-2.36v-3c-2.95-7.34-2.95-7.35-11.34-7.3zm-245.39 45.09c.46-.48.97-.9 1.5-1.31 2.4-1.87 5.34-4.1 8.02-2.28 2.78 1.88 1.61 5.45.48 8.21-4.03 9.9-11.88 15.82-21.76 20.74 1.63-10.11 5.15-18.44 11.76-25.36zm-249.3 3.48c.68-2.35.47-4.86 1.31-7.17.29-4.14 1.08-8.25 1.32-12.39 1.24-21.15 7.46-41.18 13.77-61.17 1.62-5.12 4.45-9.67 7.79-13.86 1.02-1.28 2.29-2.82 4.11-2.35 2.14.55 2.24 2.72 2.4 4.51.32 3.65.29 7.31-.32 10.95-.44 2.62-.96 5.27.44 7.8.92.47 1.84.73 2.77.86-.85 0-1.71 0-2.56-.06-1.57.36-1.93 1.71-2.37 2.95-8.27 23.34-17.47 46.3-28.2 68.66-.08.34-.31.75-.19.96.33.57-.28-.14-.1.5s-.35.42-.17-.19zm-8.5-4.95c-.47 6.12-1.04 12.28-.81 18.39.16 4.28-.99 7.64-3.4 11.01-5.71 7.98-11.46 15.9-19.23 22.06-3.57 2.83-7.48 4.87-12.13 5.13-4.58.29-7.19-2.14-8.46-6.21-1.16-3.73-1.23-7.6-.14-11.31 6.12-20.68 18.95-35.4 39.22-43.19 5.4-2.07 5.4-1.73 4.95 4.12z"/><path fill="#fff" d="M249.03 394.32c-45.47-.75-70.71 38.83-60.46 86.11 26.53-10.26 57.77-54.74 60.46-86.11z"/><path fill="#2e4560" d="M177.3 351.61v-6.78c5.11-.65 9.98-1.23 14.82-1.94 5.99-.89 8.96-4.16 8.96-10.52-.1-42.95-.1-85.87.03-128.82 0-5.35-2.52-8.31-7.32-9.67-3.07-.89-6.23-1.84-9.37-1.94-6.51-.24-9.06-2.86-6.57-9.95 5.11.34 10.42.99 15.74.99 28.37.17 56.71-.03 85.08.27 22.41.27 43.19 6.1 59.44 22.31 25.27 25.21 28.75 56.06 19.07 88.49-9.57 32.05-32.97 49.83-65.4 56.17-3.37.65-6.85 1.33-10.25 1.33-34.55.09-69.05.06-104.23.06zm56.6-7.32c8.24 0 15.63.34 22.99-.07 34.5-1.87 59.27-21.73 66.25-54.91 2.66-12.57 2.86-25.95 2.11-38.86-1.26-21.94-10.49-39.99-31-50.38-19.07-9.64-39.58-9.91-60.36-9.26.01 51.67.01 102.15.01 153.48z"/><path fill="#66bcb3" d="M54.17 341.83c11.34-27.56 59.27-60.76 86.41-60.32.37 39.41-31.61 70.24-86.41 60.32zm195.57-204.09c-39.37.1-71.77-30.55-61.28-87.47 32.98 20.61 53.28 49.19 61.28 87.47zM140.61 246.67c-37.98-7.9-66.56-28.03-86.96-60.56 43.7-13.76 91.36 19.17 86.96 60.56zm108.42 147.65c-2.69 31.37-33.89 75.85-60.46 86.11-10.25-47.28 14.99-86.86 60.46-86.11zm96.08 86.14c-26.33-9.4-59.67-56.85-60.8-86.04 38.19-7.39 67.62 33.93 60.8 86.04zm-.13-428.89c9.91 56.44-22.79 86.38-60.29 86.07-1.36-26.13 34.03-77.01 60.29-86.07zm52.48 230.08c25.65-1.77 72.04 29.94 86.75 59.33-38.35 17.1-87.73-16.65-86.75-59.33zm87.03-96.5c-12.84 28.71-59.95 61.28-87.06 60.49.55-33.75 24.9-70.77 87.06-60.49z"/><path fill="#2e4560" d="M156.48 50.1c-10.12 26.6-9.06 53.88-4.33 81.54-28-11.89-39.75-40.43-28.85-64.58 5.73-12.63 18.98-19.44 33.18-16.96zm-4.36 347.12c-4.73 27.49-5.72 54.77 4.39 81.44-16.79 2.52-31-6.64-35.32-22.62-5.04-18.6-.14-34.61 13.73-47.69 4.77-4.5 10.32-8.11 15.5-12.16.58.35 1.13.69 1.7 1.03zm231.24 82.12c10.52-27.66 9.6-54.77 4.67-82.22 30.79 12.7 40.74 45.06 26.81 68.12-6.82 11.27-17.85 14.64-31.48 14.1zm4.43-346.64c5.25-28.65 6.03-55.72-3.95-82.15 12.53-3.78 27.56 3.75 33.14 16.83 6.1 14.27 5.48 28.37-2.62 41.79-6.1 10.11-14.82 17.5-26.57 23.53zM87.34 254.02c-8.99 0-20.2 1.23-31-.27-19.76-2.69-29.39-15.67-26.87-35.42 1.16-9.13 4.46-17.98 7.12-28.3 8.75 12.53 15.91 23.94 24.25 34.44 8.38 10.55 17.95 20.12 26.5 29.55zM338.95 34.43c-11.92 8.34-23.33 15.63-33.92 23.94-10.39 8.14-19.96 17.34-29.09 25.38-1.91-12.64-2.76-27.83 4.26-42.37 4.84-10.05 13.39-14.85 24.32-15.23 12.02-.47 23.12 3.21 34.43 8.28zM195.07 496.84c11.04-7.73 22.45-15.05 33.04-23.37 10.39-8.17 19.99-17.37 29.12-25.38 2.21 11.72 2.52 26.16-3.24 40.19-4.67 11.44-13.69 17.98-25.89 17.17-11.27-.78-22.38-3.92-33.58-6.03.21-.84.38-1.72.55-2.58zm79.43-51.02c11.1 10.12 20.64 19.72 31.13 28.1 10.32 8.24 21.59 15.29 33.28 23.43-14.51 6.27-28.82 11.61-44.55 6.3-9.98-3.41-15.67-11.68-17.2-21.46-1.87-11.98-1.84-24.28-2.66-36.37zM194.7 33.07c9.23-2.28 18.32-5.52 27.66-6.64 18.73-2.25 31.68 7.46 34.33 26.4 1.53 11 .27 22.38.27 35.53-17.16-23.58-38.96-39.18-62.43-52.8.07-.82.14-1.67.17-2.49zM89.66 274.43c-22.21 16.08-37.6 37.81-51.91 62.33-6.37-14.71-11.31-28.3-7.29-43.39 3-11.27 11.58-17.47 22.21-19.24 11.96-2.01 24.25-1.87 36.38-2.69.23 1.01.4 2 .61 2.99zm358.01-21.02c23.5-16.96 38.9-38.8 52.45-62.23 6.98 10.18 11.04 29.36 8.48 40.63-2.49 10.93-9.91 17.34-20.2 20.54-12.9 4.06-26.02 3.92-40.73 1.06zm53.03 83.35c-14.07-24.12-29.53-46.22-53.1-63.18 15.94-2.55 30.25-3.24 44.14 2.49 11.14 4.56 17.03 12.94 17.51 25.07.48 12.39-3.06 23.77-8.55 35.62zm-14.78 41.93c-4.22 18.9-18.73 31.91-35.49 32.29-21.49.48-36.99-10.15-42.1-29.6 26.19 5.89 51.87 2.76 77.59-2.69zm-354.5-232.84c-13.15-.51-25.92-1.77-38.59-1.23s-25.27 2.93-37.84 4.5c1.33-14.78 17.1-30.25 32.05-31.27 22.95-1.57 40.25 9.57 44.38 28zM54.74 379.47c12.84 1.63 25.65 4.09 38.56 4.63 12.64.54 25.38-.85 37.91-1.36-2.79 16.62-19.31 28.44-40.4 28.24-17.4-.14-33.37-14.14-36.07-31.51zM408.6 147.24c3.51-17.13 18.43-28.82 37.02-29.43 20.37-.68 34.4 10.25 40.6 32.19-25.85-5.41-51.53-8.51-77.62-2.76zm1249.76 71.33c0 4.84 0 9.47.03 14.1.1 12.91-.27 25.85.41 38.73.65 12.06 6.44 18.36 18.05 21.66 1.7.48 3.64.54 5.01 1.46 1.57 1.06 2.62 2.83 3.88 4.29-1.57.82-3.07 1.87-4.73 2.35-1.26.37-2.73.03-4.09.03-21.7 0-43.43.1-65.12-.14-3.34-.03-9.37-1.33-9.54-2.62-.68-5.31 4.67-4.39 7.94-5.28 11.21-3.1 16.89-10.46 17.06-23.6.27-23.3.17-46.6.24-69.89.07-17.81.17-35.63.2-53.44 0-2.52-.17-5.08-.48-7.6-1.09-8.75-4.73-12.81-13.42-14.71-3.03-.68-6.27-.61-9.2-1.6-1.74-.58-3.07-2.45-4.56-3.75 1.63-1.02 3.2-2.66 4.94-2.86 3.47-.41 7.02.03 10.56.03 21.32 0 42.64-.24 63.93.03 7.97.1 16.11.58 23.84 2.32 45.27 10.12 47.11 55.49 29.7 78.75-5.21 6.98-11.85 12.88-18.22 19.65 14.88 20.61 29.97 41.93 45.57 62.88 6.54 8.79 15.36 14.37 26.91 14.65 1.46.03 2.9 1.81 4.36 2.76-1.29 1.29-2.52 3.58-3.88 3.68-5.82.44-11.68.2-17.54.24-5.25.03-10.63-.65-15.74.2-10.9 1.81-19.14-1.67-25.31-10.7-11.92-17.44-23.91-34.81-35.9-52.22-2.11-3.07-4.29-6.06-6.51-9.06-6.93-9.42-16.67-11.33-28.39-10.34zm.41-6.47c10.15-1.23 19.89-1.6 29.22-3.75 9.88-2.28 16.79-9.2 20.03-18.94 5.25-15.87 4.56-31.68-2.62-46.83-6.85-14.48-21.77-21.56-37.6-18.6-5.42 1.02-9.2 4.02-9.2 9.74-.07 25.45.07 50.85.17 78.38zm-978.84 87.63c-15.46.03-30.93.1-46.36.14-1.77 0-3.64.48-5.25 0-2.21-.68-4.19-2.08-6.27-3.17 1.94-1.23 3.71-3.2 5.79-3.61 15.29-2.93 19.45-7.32 19.69-23.23.31-18.39.07-36.82.1-55.21.03-20.37.1-40.74.1-61.07 0-3.13-.1-6.27-.31-9.4-.85-12.13-5.62-17.34-17.44-20.23-2.86-.72-5.38-2.9-8.04-4.39 3-1.29 5.96-3.68 8.96-3.71 31.51-.48 63.05-1.43 94.52-.58 42.1 1.12 70.85 27.76 78.07 70.51 3.88 23.03 2.96 45.64-6.64 67.34-12.67 28.54-34.61 44.45-65.87 46.12-16.96.89-34.03.24-51.02.31-.03.01-.03.08-.03.18zm.95-174.73c-.65 9.4-1.77 18.53-1.84 27.69-.24 30.52-.24 61.07-.1 91.59.03 11.14.17 22.31 1.29 33.38.95 9.2 2.93 10.73 11.96 11.17 9.74.48 19.55.75 29.29.14 22.45-1.46 37.98-13.11 44.82-34.5 10.46-32.7 9.23-65.19-5.18-96.66-5.72-12.47-14.65-22.11-27.56-27.62-16.74-7.16-34.21-6.58-52.68-5.19zm758.06 179.43c-10.97-1.46-22.21-1.87-32.87-4.63-28.75-7.36-47.79-26.02-56.95-53.99-9.64-29.39-7.36-58.52 6.88-85.94 15.36-29.6 40.84-45.1 73.74-48.09 34.67-3.13 65.74 5.38 88.35 33.31 24.59 30.35 26.16 65.09 13.25 100.38-12.36 33.72-38.62 51.43-73.4 57.32-.78.14-1.57.24-2.32.24-5.48.03-10.97.03-16.42.07-.12.45-.19.89-.26 1.33zm-63.28-101.12c1.23 10.29 1.87 20.64 3.78 30.83 3.1 16.59 9.3 31.98 21.46 44.18 10.46 10.46 22.72 16.38 38.15 15.94 13.15-.37 25.65-1.26 36.58-9.64 9.57-7.32 16.62-16.49 21.29-27.52 8.69-20.61 9.64-42.17 7.32-64-1.91-17.78-7.22-34.47-18.5-48.71-14.31-18.02-33.18-25.65-55.93-22.79-23.2 2.93-38.28 16.32-46.56 37.84-5.41 14.1-6.91 28.81-7.59 43.87zM923.7 193.4c1.87.17 3.58.48 5.28.48 15.84.03 31.71.14 47.55.03 13.42-.1 16.45-2.69 20.2-15.6.99-3.47.89-9.26 6.1-8.45 5.25.85 3.85 6.4 3.85 10.35.07 12.88.03 25.78.03 38.66 0 1.57.44 3.27 0 4.67-.68 2.01-2.01 3.78-3.03 5.65-1.63-1.36-3.88-2.42-4.77-4.19-1.4-2.72-1.81-5.96-2.73-8.96-2.04-6.64-6.61-11.17-13.45-11.31-19.48-.37-39-.03-58.93.03-.07 1.06-.27 2.76-.27 4.46 0 20.95-.03 41.89.03 62.84.03 10.01 3.27 15.05 13.18 16.14 10.32 1.12 20.88-.07 31.34 0 11.34.07 21.22-4.5 31-9.37 13.86-6.88 24.18-17.61 32.97-30.18 2.11-3 7.19-7.49 8.65-6.74 5.28 2.62 1.67 7.49.37 11.21-5.35 15.5-11 30.86-16.49 46.08-22.75.07-45.03.07-67.34.2-26.4.17-52.83.51-79.23.75-2.93.03-5.89.1-8.75-.37-1.16-.2-2.79-1.84-2.86-2.9-.1-1.12 1.16-2.96 2.28-3.44 2.11-.92 4.5-1.19 6.81-1.57 11.99-1.91 16.21-6.51 16.45-18.8.2-11.14.07-22.31.07-33.48.03-30.93.07-61.85.03-92.78-.03-16.11-2.25-18.8-17.85-22.28-.75-.17-1.67-.17-2.25-.58-1.81-1.4-3.47-2.93-5.21-4.43 2.08-1.23 4.16-3.51 6.27-3.54 15.46-.31 30.93-.1 46.39-.2 30.93-.2 61.82-.37 92.75-.82 4.22-.07 5.65 1.23 6.64 5.21 3.34 13.66 7.25 27.18 10.56 40.87.58 2.42-.58 5.28-.92 7.94-2.49-1.43-5.93-2.21-7.29-4.36-12.6-19.55-29.63-33.14-52.83-36.62-13.62-2.04-27.69-1.26-41.55-1.5-1.02-.03-3.03 1.98-3.03 3.07-.19 21.15-.08 42.27-.02 63.83zm352.77 73.94c-1.4 2.55-2.38 5.52-4.29 7.63-11.78 12.91-26.47 21.22-43.33 25.55-24.11 6.17-47.75 4.43-70.54-5.59-21.53-9.47-36.17-25.82-44.07-47.82-9.13-25.44-9.84-51.4-1.63-77.22 13.86-43.6 52.42-63.56 92.75-58.99 14.78 1.67 29.19 6.74 43.63 10.73 4.6 1.26 8.14 1.46 11.78-2.01 1.53-1.46 3.99-1.98 6.03-2.9.95 2.25 2.59 4.43 2.72 6.71.68 13.86.95 27.76 1.53 41.62.24 5.45.99 10.9 1.19 16.38.03 1.26-1.12 2.59-1.74 3.88-1.29-.95-3.2-1.63-3.78-2.93-1.26-2.83-1.84-5.96-2.76-8.92-8.14-26.29-24.22-44.79-51.53-52.04-23.94-6.34-46.15 2.69-58.96 23.94-6.88 11.41-10.39 23.98-12.09 37.09-2.66 20.2-2.11 40.23 4.02 59.81 13.32 42.61 50.72 61.34 92.48 45.37 10.93-4.19 20.61-11.65 30.83-17.68 1.94-1.16 3.64-2.72 5.45-4.12.71.49 1.53 1 2.31 1.51zM943.8 85.53c3.13-13.76 5.89-26.09 8.86-38.35.24-1.02 2.08-2.21 3.3-2.35 5.99-.68 12.02-1.02 19.07-1.57-.92 2.9-1.23 5.18-2.28 7.02-5.82 10.39-11.44 20.91-18.09 30.76-1.7 2.58-6.77 2.92-10.86 4.49z"/><path fill="#66bcb3" d="M1242.75 372.32c.55-.55 1.12-1.06 1.74-1.53 2.79-2.21 6.27-4.84 9.4-2.69 3.27 2.21 1.91 6.4.58 9.64-4.7 11.65-13.9 18.63-25.48 24.42 1.91-11.89 6.03-21.7 13.76-29.84zm-249.32-72.99l-11.58.03c-9.23 25.95-19.48 51.47-31.34 76.36-.1.41-.37.89-.2 1.12.41.68-.34-.17-.1.58.2.75-.41.51-.2-.2.78-2.76.55-5.72 1.53-8.41.34-4.87 1.23-9.71 1.5-14.54 1.4-24.83 8.62-48.4 15.97-71.9 1.87-6.03 5.18-11.38 9.09-16.32 1.19-1.5 2.69-3.3 4.8-2.79 2.52.65 2.66 3.2 2.83 5.28.37 4.29.37 8.58-.34 12.88-.2 1.23-.41 2.49-.51 3.71 0 0 2.86-.89 6.1-2.28s6.44-3.17 6.44-3.17c.24-5.55-.27-11.14-.75-16.69-.44-5.21-4.12-9.2-9.6-10.66-5.59-1.5-9.37 1.23-12.47 5.45-3.24 4.43-6.06 9.06-8.31 14.07-11.85 26.4-21.15 53.58-24.15 82.56-.48 4.73-2.28 6.4-6.95 7.22-28.51 5.11-53.99 31.68-57.73 59.74-.85 3.92-.17 7.9-.37 11.85.41 13.66 5.99 18.43 19.28 16.35 6.23-.95 11.34-4.33 15.77-8.48 7.87-7.32 15.43-14.95 21.73-23.77 1.12-1.6 2.08-3.51 4.29-4.73.24 5.08 1.29 9.47 2.62 13.73 4.29 13.86 13.73 23.94 31.03 23.13 15.46-.75 28.03-7.94 39.82-16.83 4.02-3.03 5.04-2.21 6.88 1.87 5.65 12.64 15.7 17.17 29.26 13.62 7.83-2.04 15.16-5.38 21.87-9.81 21.56-14.27 38.62-32.77 51.06-55.49.75-1.36 1.5-2.76 2.38-4.05 1.74-2.49 3.34-2.42 4.8.24 2.32 4.29 4.63 8.65 7.56 12.53 2.66 3.51 3.1 6.64 1.19 10.76-3.51 7.66-5.45 15.87-6.51 24.25-1.7 13.32 5.62 22.41 18.43 22.89 3.03 0 6.06-.03 9.09-.03 12.67.51 23.54-4.84 34.16-10.7 7.63-4.22 14.65-9.37 21.9-15.19 2.66 12.87 6.54 23.94 20.95 26.29 4.7 0 9.4-.03 14.1-.03 23.98-2.28 42.2-15.67 59.44-30.76-3.24 12.6 6.95 27.08 21.56 30.52 5.07 0 10.18-.03 15.26-.03 21.22-3.37 37.09-16.45 53.31-30.04 1.09 5.62 2.42 10.29 4.53 14.68 4.39 9.16 11.1 14.88 21.87 14.51 3.13 0 6.27-.03 9.4-.03 7.19.2 13.86-1.36 20.27-4.73 12.09-6.34 22.68-14.54 32.09-24.39 2.69-2.83 5.14-5.89 7.39-9.09 1.53-2.18 1.4-4.43-.61-6.37-2.15-2.08-4.26-1.36-6.3.2-1.57 1.19-2.93 2.59-4.16 4.12-7.32 9.09-16.42 16.14-26.02 22.58a52.899 52.899 0 0 1-18.26 7.8c-10.32 2.25-19.18-2.25-23.64-11.79-2.11-4.5-3.3-9.26-3.61-14.14-1.74-27.01 4.63-52.35 15.84-76.71 1.7-3.75 4.43-5.01 8.38-5.01 6.64.03 13.32.99 19.89.89 26.98-.31 53.92 1.91 80.93 1.19 2.96-.07 5.93-.17 7.97-2.79v-3.51c-3.51-8.52-3.51-8.52-13.35-8.45-20.33.17-40.7.37-61.04.51-11.89.07-23.77.07-36.04.1.65-1.77 1.26-3.41 1.84-5.01 5.31-14.61 10.66-29.19 15.91-43.84 1.81-5.04 2.49-10.22 1.02-15.53-1.12-4.12-4.19-6.47-7.97-6.74-3.68-.27-3.27 3.85-4.02 6.17-6.3 20.03-12.5 40.12-18.46 60.25-1.23 4.12-3.1 5.35-7.29 5.35-25.44.1-50.85.44-76.3.78-2.32.03-4.67.41-6.95.82-1.5.27-3.24.78-3.34 2.72-.1 1.74 1.12 2.83 2.38 3.78 2.52 1.91 5.45 1.84 8.41 1.81 24.46-.27 48.91-.44 73.37-.82 4.05-.07 5.25.41 4.02 5.08-5.42 20.74-13.15 41.01-15.63 62.33-1.06 9.13-5.25 15.05-11.41 20.61-11.07 10.01-22.41 19.58-37.23 23.6-13.86 3.78-25.38-1.98-29.7-15.63-5.38-17-2.79-33.18 7.66-47.82 2.08-2.9 4.73-5.21 8.14-6.51 2.55-.99 5.59-2.42 7.77-.58 2.52 2.11 1.5 5.42.44 8.17-.92 2.35-2.08 4.63-3.2 6.91-1.09 2.18-2.28 4.73.07 6.37 2.52 1.74 4.33-.89 5.86-2.45 3.41-3.54 6.17-7.56 7.73-12.3 2.45-7.29-.72-13.39-8.21-15.29-7.77-1.98-14.24.99-19.89 5.99-9.88 8.75-15.06 20.23-18.12 32.77-.72 2.86-1.43 5.59-3.54 7.87-13.39 14.37-28.95 25.68-47.48 32.32-19.45 6.98-31.44-1.46-32.15-22.07-.03-.99.07-1.98-.03-2.93-.41-3.34 1.02-5.28 3.92-7.02 8.21-4.94 16.11-10.39 22.99-17.13 4.77-4.7 9.03-9.78 10.87-16.42 2.45-8.72-2.96-15.77-11.99-15.77-6.74 0-11.92 3.34-16.38 8-8.65 9.09-15.02 19.76-17.58 31.92-1.98 9.43-7.22 15.6-14.37 21.05-6.23 4.73-12.5 9.4-19.35 13.22-7.7 4.29-15.63 8-24.49 9.26-11.17 1.57-17.2-4.12-16.42-15.36.51-7.53 2.42-14.78 5.89-21.29 3.27-6.13 1.63-10.73-2.15-15.46-6.64-8.28-12.33-17.06-15.26-27.42a9.652 9.652 0 0 0-1.57-3.1c-2.38-3.07-4.7-4.12-7.05.17-2.83 5.14-5.89 10.12-8.82 15.19-12.02 20.57-26.29 39.24-45.61 53.61-5.99 4.46-12.26 8.41-19.52 10.46-11 3.1-18.94-1.63-21.63-12.64-1.19-4.84-1.06-9.64-.68-14.54.95-12.57 3.81-24.63 9.5-35.93 1.98-3.95.78-7.66-2.9-9.57-4.19-2.18-5.76 1.36-7.15 4.53-5.96 13.45-10.32 27.35-11.17 42.17-.1 2.11.07 4.16-1.84 5.89-9.95 8.99-20.54 16.86-33.82 20.23-10.32 2.62-19.31-.14-24.39-8.11-7.6-11.96-7.53-25.58-7.46-39.1 0-1.23 1.06-2.49 1.74-3.64 9.78-16.66 18.6-33.86 26.7-51.36 5.41-11.77 12.02-25.12 15.87-37.72m-53.44 72.14c-.55 7.19-1.19 14.41-.89 21.59.2 5.04-1.16 8.99-3.95 12.94-6.68 9.4-13.39 18.7-22.51 25.99-4.19 3.34-8.79 5.76-14.24 6.06-5.38.37-8.45-2.49-9.95-7.25-1.36-4.36-1.46-8.92-.2-13.28 7.12-24.32 22.14-41.62 45.91-50.85 6.3-2.49 6.3-2.08 5.83 4.8z"/></svg>